<mxfile host="Electron" modified="2023-11-09T12:19:02.073Z" agent="Mozilla/5.0 (X11; Linux x86_64) AppleWebKit/537.36 (KHTML, like Gecko) draw.io/21.3.7 Chrome/112.0.5615.204 Electron/24.5.0 Safari/537.36" etag="7ZWfR0_EFfpPu7Pgy7Oa" version="21.3.7" type="device">
  <diagram name="Page-1" id="6iHEjLcGqMGaxDop0hEK">
    <mxGraphModel dx="607" dy="842" grid="1" gridSize="10" guides="1" tooltips="1" connect="1" arrows="1" fold="1" page="1" pageScale="1" pageWidth="827" pageHeight="1169" math="0" shadow="0">
      <root>
        <mxCell id="0" />
        <mxCell id="1" parent="0" />
        <mxCell id="UxVwWkC277Bq-PU8NcVB-15" value="" style="group" parent="1" vertex="1" connectable="0">
          <mxGeometry x="830" y="220" width="550" height="650" as="geometry" />
        </mxCell>
        <mxCell id="UxVwWkC277Bq-PU8NcVB-1" value="" style="rounded=1;whiteSpace=wrap;html=1;" parent="UxVwWkC277Bq-PU8NcVB-15" vertex="1">
          <mxGeometry width="490" height="650" as="geometry" />
        </mxCell>
        <mxCell id="UxVwWkC277Bq-PU8NcVB-3" value="" style="rounded=0;whiteSpace=wrap;html=1;" parent="UxVwWkC277Bq-PU8NcVB-15" vertex="1">
          <mxGeometry x="51.04166666666666" y="25" width="377.70833333333326" height="40" as="geometry" />
        </mxCell>
        <mxCell id="UxVwWkC277Bq-PU8NcVB-4" value="" style="rounded=1;whiteSpace=wrap;html=1;fillColor=#bac8d3;strokeColor=none;" parent="UxVwWkC277Bq-PU8NcVB-15" vertex="1">
          <mxGeometry x="20.416666666666664" y="119.99999999999999" width="173.54166666666663" height="29.999999999999996" as="geometry" />
        </mxCell>
        <mxCell id="UxVwWkC277Bq-PU8NcVB-5" value="" style="rounded=1;whiteSpace=wrap;html=1;fillColor=#bac8d3;strokeColor=none;" parent="UxVwWkC277Bq-PU8NcVB-15" vertex="1">
          <mxGeometry x="20.416666666666664" y="170" width="173.54166666666663" height="29.999999999999996" as="geometry" />
        </mxCell>
        <mxCell id="UxVwWkC277Bq-PU8NcVB-6" value="" style="rounded=1;whiteSpace=wrap;html=1;fillColor=#bac8d3;strokeColor=none;" parent="UxVwWkC277Bq-PU8NcVB-15" vertex="1">
          <mxGeometry x="20.416666666666664" y="219.99999999999994" width="173.54166666666663" height="29.999999999999996" as="geometry" />
        </mxCell>
        <mxCell id="UxVwWkC277Bq-PU8NcVB-7" value="" style="rounded=1;whiteSpace=wrap;html=1;fillColor=#bac8d3;strokeColor=none;" parent="UxVwWkC277Bq-PU8NcVB-15" vertex="1">
          <mxGeometry x="20.416666666666664" y="270" width="173.54166666666663" height="29.999999999999996" as="geometry" />
        </mxCell>
        <mxCell id="UxVwWkC277Bq-PU8NcVB-9" value="" style="rounded=1;whiteSpace=wrap;html=1;fillColor=#bac8d3;strokeColor=none;" parent="UxVwWkC277Bq-PU8NcVB-15" vertex="1">
          <mxGeometry x="20.416666666666664" y="365" width="449.16666666666663" height="29.999999999999996" as="geometry" />
        </mxCell>
        <mxCell id="UxVwWkC277Bq-PU8NcVB-10" value="" style="rounded=1;whiteSpace=wrap;html=1;fillColor=#bac8d3;strokeColor=none;" parent="UxVwWkC277Bq-PU8NcVB-15" vertex="1">
          <mxGeometry x="20.416666666666664" y="409.9999999999999" width="449.16666666666663" height="29.999999999999996" as="geometry" />
        </mxCell>
        <mxCell id="UxVwWkC277Bq-PU8NcVB-11" value="" style="rounded=1;whiteSpace=wrap;html=1;fillColor=#bac8d3;strokeColor=none;" parent="UxVwWkC277Bq-PU8NcVB-15" vertex="1">
          <mxGeometry x="20.416666666666664" y="510" width="449.16666666666663" height="29.999999999999996" as="geometry" />
        </mxCell>
        <mxCell id="UxVwWkC277Bq-PU8NcVB-12" value="" style="rounded=1;whiteSpace=wrap;html=1;fillColor=#bac8d3;strokeColor=none;" parent="UxVwWkC277Bq-PU8NcVB-15" vertex="1">
          <mxGeometry x="20.416666666666664" y="459.99999999999994" width="449.16666666666663" height="29.999999999999996" as="geometry" />
        </mxCell>
        <mxCell id="UxVwWkC277Bq-PU8NcVB-13" value="" style="rounded=1;whiteSpace=wrap;html=1;fillColor=#bac8d3;strokeColor=none;" parent="UxVwWkC277Bq-PU8NcVB-15" vertex="1">
          <mxGeometry x="20.416666666666664" y="559.9999999999999" width="449.16666666666663" height="29.999999999999996" as="geometry" />
        </mxCell>
        <mxCell id="UxVwWkC277Bq-PU8NcVB-14" value="&lt;font style=&quot;font-size: 19px;&quot;&gt;https://www.monapplication.com&lt;/font&gt;" style="text;html=1;strokeColor=none;fillColor=none;align=left;verticalAlign=middle;whiteSpace=wrap;rounded=0;" parent="UxVwWkC277Bq-PU8NcVB-15" vertex="1">
          <mxGeometry x="54.04166666666666" y="25" width="285.8333333333333" height="40" as="geometry" />
        </mxCell>
        <mxCell id="5SwmvgSCm_Z5sVcomVd8-9" value="" style="shape=image;verticalLabelPosition=bottom;labelBackgroundColor=default;verticalAlign=top;aspect=fixed;imageAspect=0;image=data:image/png,iVBORw0KGgoAAAANSUhEUgAAAoAAAAKACAYAAAAMzckjAACAAElEQVR4XuydCbhWVfXGxXnAEFCGy3xBFMEJxQmc52xwqhwb1UrJNBOzNPtraakxaZaZaZmZmbNmWpnmgCCgKOYA5jybCM4Crv9Z+3zn8t33fuBiwd53n7PX73l+3cuV3j2c/XmX+0wrkGEYhmEYhpEUK+APDMMwDMMwjGpjBaBhGIZhGEZiWAFoGIZhGIaRGFYAGoZhGIZhJIYVgIZhGIZhGIlhBaBhGIZhGEZiWAFoGIZhGIaRGFYAGoZhGIZhJIYVgIZhGIZhGIlhBaBhGIZhGEZiWAFoGIZhGIaRGFYAGoZhGIZhJIYVgIZhGIZhGIlhBaBhGIZhGEZiWAFoGIZhGIaRGFYAGoZhGIZhJIYVgIZhGIZhGIlhBaBhGIZhGEZiWAFoGIZhGIaRGFYAGoZhGIZhJIYVgIZhGIZhGIlhBaBhGIZhGEZiWAFoGIZhGIaRGFYAGoZhGIZhJIYVgIZhGIZhGIlhBaBhGIZhGEZiWAFoGIZhGIaRGFYAGoZhGIZhJIYVgIZhGIZhGIlhBaBhGIZhGEZiWAFoGIZhGIaRGFYAGoZhGIZhJIYVgIZhGIZhGIlhBaBhGIZhGEZiWAFoGIZhGIaRGFYAGoZhGIZhJIYVgIZhGIZhGIlhBaBhGIZhGEZiWAFoGIZhGIaRGFYAGoZhGIZhJIYVgIZhGIZhGIlhBaBhGIZhGEZiWAFoGIZhGIaRGFYAGoZhGIZhJIYVgIZhGIZhGIlhBaBhGIZhGEZiWAFoGIZhGIaRGFYAGoZhGIZhJIYVgIZhGIZhGIlhBaBhGIZhGEZiWAFoGIZhGIaRGFYAGoZhGIZhJIYVgIZhGIZhGIlhBaBhGIZhGEZiWAFoGIZhGIaRGFYAGoZhGIZhJIYVgIZhGIZhGIlhBaBhGIZhGEZiWAFoGIZhGIaRGFYAGoZhGIZhJEaSBeAKK6xgRmBZwH6by6YWzDFzywL2u2pqwRyzfUyRJEeNB95sH8sC9ttcNrVgjplbFrDfVVML5pjtY4okOWo88Gb7WBaw3+ayqQVzzNyygP2umlowx2wfUyTJUeOBN9vHsoD9NpdNLZhj5pYF7HfV1II5ZvuYIkmOGg+82T6WBey3uWxqwRwztyxgv6umFswx28cUSXLUeODN9rEsYL/NZVML5pi5ZQH7XTW1YI7ZPqZIkqPGA2+2j2UB+20um1owx8wtC9jvqqkFc8z2MUWSHDUeeLN9LAvYb3PZ1II5Zm5ZwH5XTS2YY7aPKZLkqPHAm+1jWcB+m8umFswxc8sC9rtqasEcs31MkSRHjQfebB/LAvbbXDa1YI6ZWxaw31VTC+aY7WOKJDlqPPBm+1gWsN/msqkFc8zcsoD9rppaMMdsH1MkyVHjgTfbx7KA/TaXTS2YY+aWBex31dSCOWb7mCJJjhoPvNk+lgXst7lsasEcM7csYL+rphbMMdvHFEly1HjgzfaxLGC/zWVTC+aYuWUB+101tWCO2T6mSJKjxgMv1WgMzpNULZgjVQvmxKoWzJEaGmzft2UB+y01NNi+1NBg+1K1YI5UozE4T1JTJMlR44GXajQG50mqFsyRqgVzYlUL5kgNDbbv27KA/ZYaGmxfamiwfalaMEeq0RicJ6kpkuSo8cBLNRqD8yRVC+ZI1YI5saoFc6SGBtv3bVnAfksNDbYvNTTYvlQtmCPVaAzOk9QUSXLUeOClGo3BeZKqBXOkasGcWNWCOVJDg+37tixgv6WGBtuXGhpsX6oWzJFqNAbnSWqKJDlqPPBSjcbgPEnVgjlStWBOrGrBHKmhwfZ9Wxaw31JDg+1LDQ22L1UL5kg1GoPzJDVFkhw1HnipRmNwnqRqwRypWjAnVrVgjtTQYPu+LQvYb6mhwfalhgbbl6oFc6QajcF5kpoiSY4aD7xUozE4T1K1YI5ULZgTq1owR2posH3flgXst9TQYPtSQ4PtS9WCOVKNxuA8SU2RJEeNB16q0RicJ6laMEeqFsyJVS2YIzU02L5vywL2W2posH2pocH2pWrBHKlGY3CepKZIkqPGAy/VaAzOk1QtmCNVC+bEqhbMkRoabN+3ZQH7LTU02L7U0GD7UrVgjlSjMThPUlMkyVHjgZdqNAbnSaoWzJGqBXNiVQvmSA0Ntu/bsoD9lhoabF9qaLB9qVowR6rRGJwnqSmS5KjxwEs1GoPzJFUL5kjVgjmxqgVzpIYG2/dtWcB+Sw0Nti81NNi+VC2YI9VoDM6T1BRJctR44KUajcF5kqoFc6RqwZxY1YI5UkOD7fu2LGC/pYYG25caGmxfqhbMkWo0BudJaookOWo88FKNxuA8SdWCOVK1YE6sasEcqaHB9n1bFrDfUkOD7UsNDbYvVQvmSDUag/MkNUWSHDUeeKlGY3CepGrBHKlaMCdWtWCO1NBg+74tC9hvqaHB9qWGBtuXqgVzpBqNwXmSmiJJjhoPvFQtmBOrWjBHamiw/aqpBXNitSxgv6VqwZxYDQ2271stmCNVC+bEqhbMkZoiSY4aD7xULZgTq1owR2posP2qqQVzYrUsYL+lasGcWA0Ntu9bLZgjVQvmxKoWzJGaIkmOGg+8VC2YE6taMEdqaLD9qqkFc2K1LGC/pWrBnFgNDbbvWy2YI1UL5sSqFsyRmiJJjhoPvFQtmBOrWjBHamiw/aqpBXNitSxgv6VqwZxYDQ2271stmCNVC+bEqhbMkZoiSY4aD7xULZgTq1owR2posP2qqQVzYrUsYL+lasGcWA0Ntu9bLZgjVQvmxKoWzJGaIkmOGg+8VC2YE6taMEdqaLD9qqkFc2K1LGC/pWrBnFgNDbbvWy2YI1UL5sSqFsyRmiJJjhoPvFQtmBOrWjBHamiw/aqpBXNitSxgv6VqwZxYDQ2271stmCNVC+bEqhbMkZoiSY4aD7xULZgTq1owR2posP2qqQVzYrUsYL+lasGcWA0Ntu9bLZgjVQvmxKoWzJGaIkmOGg+8VC2YE6taMEdqaLD9qqkFc2K1LGC/pWrBnFgNDbbvWy2YI1UL5sSqFsyRmiJJjhoPvFQtmBOrWjBHamiw/aqpBXNitSxgv6VqwZxYDQ2271stmCNVC+bEqhbMkZoiSY4aD7xULZgTq1owR2posP2qqQVzYrUsYL+lasGcWA0Ntu9bLZgjVQvmxKoWzJGaIkmOGg+8VC2YE6taMEdqaLD9qqkFc2K1LGC/pWrBnFgNDbbvWy2YI1UL5sSqFsyRmiJJjhoPvFQtmBOrWjBHamiw/aqpBXNitSxgv6VqwZxYDQ2271stmCNVC+bEqhbMkZoiSY4aD7xULZgTq1owR2posP2qqQVzYrUsYL+lasGcWA0Ntu9bLZgjVQvmxKoWzJGaIkmOGg+8VC2YE6taMEdqaLB9qaHB9qVqwRypWjBHatXB8UoNDbYvVQvmSNWCOVK1YI5ULZgTq1owR2qKJDlqPPBStWBOrGrBHKmhwfalhgbbl6oFc6RqwRypVQfHKzU02L5ULZgjVQvmSNWCOVK1YE6sasEcqSmS5KjxwEvVgjmxqgVzpIYG25caGmxfqhbMkaoFc6RWHRyv1NBg+1K1YI5ULZgjVQvmSNWCObGqBXOkpkiSo8YDL1UL5sSqFsyRGhpsX2posH2pWjBHqhbMkVp1cLxSQ4PtS9WCOVK1YI5ULZgjVQvmxKoWzJGaIkmOGg+8VC2YE6taMEdqaLB9qaHB9qVqwRypWjBHatXB8UoNDbYvVQvmSNWCOVK1YI5ULZgTq1owR2qKJDlqPPBStWBOrGrBHKmhwfalhgbbl6oFc6RqwRypVQfHKzU02L5ULZgjVQvmSNWCOVK1YE6sasEcqSmS5KjxwEvVgjmxqgVzpIYG25caGmxfqhbMkaoFc6RWHRyv1NBg+1K1YI5ULZgjVQvmSNWCObGqBXOkpkiSo8YDL1UL5sSqFsyRGhpsX2posH2pWjBHqhbMkVp1cLxSQ4PtS9WCOVK1YI5ULZgjVQvmxKoWzJGaIkmOGg+8VC2YE6taMEdqaLB9qaHB9qVqwRypWjBHatXB8UoNDbYvVQvmSNWCOVK1YI5ULZgTq1owR2qKJDlqPPBStWBOrGrBHKmhwfalhgbbl6oFc6RqwRypVQfHKzU02L5ULZgjVQvmSNWCOVK1YE6sasEcqSmS5KjxwEvVgjmxqgVzpIYG25caGmxfqhbMkaoFc6RWHRyv1NBg+1K1YI5ULZgjVQvmSNWCObGqBXOkpkiSo8YDL1UL5sSqFsyRGhpsX2posH2pWjBHqhbMkVp1cLxSQ4PtS9WCOVK1YI5ULZgjVQvmxKoWzJGaIkmOGg+8VC2YE6taMEdqaLB9qaHB9qVqwRypWjBHatXB8UoNDbYvVQvmSNWCOVK1YI5ULZgTq1owR2qKJDlqPPBStWBOrGrBHKmhwfalhgbbl6oFc6RqwRypVQfHKzU02L5ULZgjVQvmSNWCOVK1YE6sasEcqSmS5KjxwEvVgjmxqgVzpIYG24/VqoPjlRoabN+3WjDHt1owJ1ZDg+1L1YI5saoFc6SmSJKjxgMvVQvmxKoWzJEaGmw/VqsOjldqaLB932rBHN9qwZxYDQ22L1UL5sSqFsyRmiJJjhoPvFQtmBOrWjBHamiw/VitOjheqaHB9n2rBXN8qwVzYjU02L5ULZgTq1owR2qKJDlqPPBStWBOrGrBHKmhwfZjtergeKWGBtv3rRbM8a0WzInV0GD7UrVgTqxqwRypKZLkqPHAS9WCObGqBXOkhgbbj9Wqg+OVGhps37daMMe3WjAnVkOD7UvVgjmxqgVzpKZIkqPGAy9VC+bEqhbMkRoabD9Wqw6OV2posH3fasEc32rBnFgNDbYvVQvmxKoWzJGaIkmOGg+8VC2YE6taMEdqaLD9WK06OF6pocH2fasFc3yrBXNiNTTYvlQtmBOrWjBHaookOWo88FK1YE6sasEcqaHB9mO16uB4pYYG2/etFszxrRbMidXQYPtStWBOrGrBHKkpkuSo8cBL1YI5saoFc6SGBtuP1aqD45UaGmzft1owx7daMCdWQ4PtS9WCObGqBXOkpkiSo8YDL1UL5sSqFsyRGhpsP1arDo5Xamiwfd9qwRzfasGcWA0Nti9VC+bEqhbMkZoiSY4aD7xULZgTq1owR2posP1YrTo4XqmhwfZ9qwVzfKsFc2I1NNi+VC2YE6taMEdqiiQ5ajzwUrVgTqxqwRypocH2Y7Xq4Hilhgbb960WzPGtFsyJ1dBg+1K1YE6sasEcqSmS5KjxwEvVgjmxqgVzpIYG24/VqoPjlRoabN+3WjDHt1owJ1ZDg+1L1YI5saoFc6SmSJKjxgMvVQvmxKoWzJEaGmw/VqsOjldqaLB932rBHN9qwZxYDQ22L1UL5sSqFsyRmiJJjhoPvFSjMThPUrVgTqwajcF5kmrEAR6XWNWCOVK1YI5UozE4T1JTJMlR44GXajQG50mqFsyJVaMxOE9SjTjA4xKrWjBHqhbMkWo0BudJaookOWo88FKNxuA8SdWCObFqNAbnSaoRB3hcYlUL5kjVgjlSjcbgPElNkSRHjQdeqtEYnCepWjAnVo3G4DxJNeIAj0usasEcqVowR6rRGJwnqSmS5KjxwEs1GoPzJFUL5sSq0RicJ6lGHOBxiVUtmCNVC+ZINRqD8yQ1RZIcNR54qUZjcJ6kasGcWDUag/Mk1YgDPC6xqgVzpGrBHKlGY3CepKZIkqPGAy/VaAzOk1QtmBOrRmNwnqQacYDHJVa1YI5ULZgj1WgMzpPUFEly1HjgpRqNwXmSqgVzYtVoDM6TVCMO8LjEqhbMkaoFc6QajcF5kpoiSY4aD7xUozE4T1K1YE6sGo3BeZJqxAEel1jVgjlStWCOVKMxOE9SUyTJUeOBl2o0BudJqhbMiVWjMThPUo04wOMSq1owR6oWzJFqNAbnSWqKJDlqPPBSjcbgPEnVgjmxajQG50mqEQd4XGJVC+ZI1YI5Uo3G4DxJTZEkR40HXqrRGJwnqVowJ1aNxuA8STXiAI9LrGrBHKlaMEeq0RicJ6kpkuSo8cBLNRqD8yRVC+bEqtEYnCepRhzgcYlVLZgjVQvmSDUag/MkNUWSHDUeeKlGY3CepGrBnFg1GoPzJNWIAzwusaoFc6RqwRypRmNwnqSmSJKjxgNvto9aMEeqFsyRqgVzpGrBHKlaMEeqFsyRqgVzpGrBHKlaMEeqFsyRqgVzpGrBHLN9TJEkR40H3mwftWCOVC2YI1UL5kjVgjlStWCOVC2YI1UL5kjVgjlStWCOVC2YI1UL5kjVgjlm+5giSY4aD7zZPmrBHKlaMEeqFsyRqgVzpGrBHKlaMEeqFsyRqgVzpGrBHKlaMEeqFsyRqgVzzPYxRZIcNR54s33UgjlStWCOVC2YI1UL5kjVgjlStWCOVC2YI1UL5kjVgjlStWCOVC2YI1UL5pjtY4okOWo88Gb7qAVzpGrBHKlaMEeqFsyRqgVzpGrBHKlaMEeqFsyRqgVzpGrBHKlaMEeqFswx28cUSXLUeODN9lEL5kjVgjlStWCOVC2YI1UL5kjVgjlStWCOVC2YI1UL5kjVgjlStWCOVC2YY7aPKZLkqPHAm+2jFsyRqgVzpGrBHKlaMEeqFsyRqgVzpGrBHKlaMEeqFsyRqgVzpGrBHKlaMMdsH1MkyVHjgTfbRy2YI1UL5kjVgjlStWCOVC2YI1UL5kjVgjlStWCOVC2YI1UL5kjVgjlStWCO2T6mSJKjxgNvto9aMEeqFsyRqgVzpGrBHKlaMEeqFsyRqgVzpGrBHKlaMEeqFsyRqgVzpGrBHLN9TJEkR40H3mwftWCOVC2YI1UL5kjVgjlStWCOVC2YI1UL5kjVgjlStWCOVC2YI1UL5kjVgjlm+5giSY4aD7zZPmrBHKlaMEeqFsyRqgVzpGrBHKlaMEeqFsyRqgVzpGrBHKlaMEeqFsyRqgVzzPYxRZIcNR54s33UgjlStWCOVC2YI1UL5kjVgjlStWCOVC2YI1UL5kjVgjlStWCOVC2YI1UL5pjtY4okOWo88Gb7qAVzpGrBHKlaMEeqFsyRqgVzpGrBHKlaMEeqFsyRqgVzpGrBHKlaMEeqFswx28cUSXLUeODN9lEL5kjVgjlStWCOVC2YI1UL5kjVgjlStWCOVC2YI1UL5kjVgjlStWCOVC2YY7aPKZLmqI1Sgx9c34YG2/dt1cHx+lYL5kjVgjlSQ4PtSzUMY8nYp8QoHfgvet+GBtv3bdXB8fpWC+ZI1YI5UkOD7Us1DGPJ2KfEKB34L3rfhgbb923VwfH6VgvmSNWCOVJDg+1LNQxjydinxCgd+C9634YG2/dt1cHx+lYL5kjVgjlSQ4PtSzUMY8nYp8QoHfgvet+GBtv3bdXB8fpWC+ZI1YI5UkOD7Us1DGPJ2KfEKB34L3rfhgbb923VwfH6VgvmSNWCOVJDg+1LNQxjydinxCgd+C9634YG2/dt1cHx+lYL5kjVgjlSQ4PtSzUMY8nYp8QoHfgvet+GBtv3bdXB8fpWC+ZI1YI5UkOD7Us1DGPJ2KfEKB34L3rfhgbb923VwfH6VgvmSNWCOVJDg+1LNQxjydinxCgd+C9634YG2/dt1cHx+lYL5kjVgjlSQ4PtSzUMY8nYp8QoHfgvet+GBtv3bdXB8fpWC+ZI1YI5UkOD7Us1DGPJ2KfEKB34L3rfhgbb923VwfH6VgvmSNWCOVJDg+1LNQxjydinxCgd+C9634YG2/dt1cHx+lYL5kjVgjlSQ4PtSzUMY8nYp8QoHfgvet+GBtv3bdXB8fpWC+ZI1YI5UkOD7Us1DGPJ2KekguC/CKtmaLB932rBHLNcasEcqVowp2qGBtv3bVnAfks15NhsVRD8QFTN0GD7vtWCOWa51II5UrVgTtUMDbbv27KA/ZZqyLHZqiD4gaiaocH2fasFc8xyqQVzpGrBnKoZGmzft2UB+y3VkGOzVUHwA1E1Q4Pt+1YL5pjlUgvmSNWCOVUzNNi+b8sC9luqIcdmq4LgB6Jqhgbb960WzDHLpRbMkaoFc6pmaLB935YF7LdUQ47NVgXBD0TVDA2271stmGOWSy2YI1UL5lTN0GD7vi0L2G+phhybrQqCH4iqGRps37daMMcsl1owR6oWzKmaocH2fVsWsN9SDTk2WxUEPxBVMzTYvm+1YI5ZLrVgjlQtmFM1Q4Pt+7YsYL+lGnJstioIfiCqZmiwfd9qwRyzXGrBHKlaMKdqhgbb921ZwH5LNeTYbFUQ/EBUzdBg+77VgjlmudSCOVK1YE7VDA2279uygP2Wasix2aog+IGomqHB9n2rBXPMcqkFc6RqwZyqGRps37dlAfst1ZBjs1VB8ANRNUOD7ftWC+aY5VIL5kjVgjlVMzTYvm/LAvZbqiHHZquC4AeiaoYG2/etFswxy6UWzJGqBXOqZmiwfd+WBey3VEOOzVYFwQ9E1QwNtu9bLZhjlkstmCNVC+ZUzdBg+74tC9hvqYacJGcLF4zUsoD99q0WzJGqBXN8qwVzfBsabN+3WjDHt1owJ1bLAvZbqhbMiVUtmCPV8E+Ss4wLTWpZwH77VgvmSNWCOb7Vgjm+DQ2271stmONbLZgTq2UB+y1VC+bEqhbMkWr4J8lZxoUmtSxgv32rBXOkasEc32rBHN+GBtv3rRbM8a0WzInVsoD9lqoFc2JVC+ZINfyT5CzjQpNaFrDfvtWCOVK1YI5vtWCOb0OD7ftWC+b4VgvmxGpZwH5L1YI5saoFc6Qa/klylnGhSS0L2G/fasEcqVowx7daMMe3ocH2fasFc3yrBXNitSxgv6VqwZxY1YI5Ug3/JDnLuNCklgXst2+1YI5ULZjjWy2Y49vQYPu+1YI5vtWCObFaFrDfUrVgTqxqwRyphn+SnGVcaFLLAvbbt1owR6oWzPGtFszxbWiwfd9qwRzfasGcWC0L2G+pWjAnVrVgjlTDP0nOMi40qWUB++1bLZgjVQvm+FYL5vg2NNi+b7Vgjm+1YE6slgXst1QtmBOrWjBHquGfJGcZF5rUsoD99q0WzJGqBXN8qwVzfBsabN+3WjDHt1owJ1bLAvZbqhbMiVUtmCPV8E+Ss4wLTWpZwH77VgvmSNWCOb7Vgjm+DQ2271stmONbLZgTq2UB+y1VC+bEqhbMkWr4J8lZxoUmtSxgv32rBXOkasEc32rBHN+GBtv3rRbM8a0WzInVsoD9lqoFc2JVC+ZINfyT5CzjQpNaFrDfvtWCOVK1YI5vtWCOb0OD7ftWC+b4VgvmxGpZwH5L1YI5saoFc6Qa/klylnGhSS0L2G/fasEcqVowx7daMMe3ocH2fasFc3yrBXNitSxgv6VqwZxY1YI5Ug3/JDnLuNCklgXst2+1YI5ULZjjWy2Y49vQYPu+1YI5vtWCObFaFrDfUrVgTqxqwRyphn9slgOAC1tqaLB9M7csYL9jVQvmSNWCOb7VgjlSQ4Pt+1YL5vg2NNh+rBr+sVkOAC5sqaHB9s3csoD9jlUtmCNVC+b4VgvmSA0Ntu9bLZjj29Bg+7Fq+MdmOQC4sKWGBts3c8sC9jtWtWCOVC2Y41stmCM1NNi+b7Vgjm9Dg+3HquEfm+UA4MKWGhps38wtC9jvWNWCOVK1YI5vtWCO1NBg+77Vgjm+DQ22H6uGf2yWA4ALW2posH0ztyxgv2NVC+ZI1YI5vtWCOVJDg+37Vgvm+DY02H6sGv6xWQ4ALmypocH2zdyygP2OVS2YI1UL5vhWC+ZIDQ2271stmOPb0GD7sWr4x2Y5ALiwpYYG2zdzywL2O1a1YI5ULZjjWy2YIzU02L5vtWCOb0OD7ceq4R+b5QDgwpYaGmzfzC0L2O9Y1YI5UrVgjm+1YI7U0GD7vtWCOb4NDbYfq4Z/bJYDgAtbamiwfTO3LGC/Y1UL5kjVgjm+1YI5UkOD7ftWC+b4NjTYfqwa/rFZDgAubKmhwfbN3LKA/Y5VLZgjVQvm+FYL5kgNDbbvWy2Y49vQYPuxavjHZjkAuLClhgbbN3PLAvY7VrVgjlQtmONbLZgjNTTYvm+1YI5vQ4Ptx6rhH5vlAODClhoabN/MLQvY71jVgjlStWCOb7VgjtTQYPu+1YI5vg0Nth+rhn9slgOAC1tqaLB9M7csYL9jVQvmSNWCOb7VgjlSQ4Pt+1YL5vg2NNh+rBr+sVkOAC5sqaHB9s3csoD9jlUtmCNVC+b4VgvmSA0Ntu9bLZjj29Bg+7Fq+MdmeSnABVo1Q4PtS9WCOWZuWcB+S9WCOVK1YI7UqoPjlRoabF9qaLB9qVowR6oWzJGaImmOWgkumKoZGmxfqhbMMXPLAvZbqhbMkaoFc6RWHRyv1NBg+1JDg+1L1YI5UrVgjtQUSXPUSnDBVM3QYPtStWCOmVsWsN9StWCOVC2YI7Xq4HilhgbblxoabF+qFsyRqgVzpKZImqNWggumaoYG25eqBXPM3LKA/ZaqBXOkasEcqVUHxys1NNi+1NBg+1K1YI5ULZgjNUXSHLUSXDBVMzTYvlQtmGPmlgXst1QtmCNVC+ZIrTo4Xqmhwfalhgbbl6oFc6RqwRypKZLmqJXggqmaocH2pWrBHDO3LGC/pWrBHKlaMEdq1cHxSg0Nti81NNi+VC2YI1UL5khNkTRHrQQXTNUMDbYvVQvmmLllAfstVQvmSNWCOVKrDo5XamiwfamhwfalasEcqVowR2qKpDlqJbhgqmZosH2pWjDHzC0L2G+pWjBHqhbMkVp1cLxSQ4PtSw0Nti9VC+ZI1YI5UlMkzVErwQVTNUOD7UvVgjlmblnAfkvVgjlStWCO1KqD45UaGmxfamiwfalaMEeqFsyRmiJpjloJLpiqGRpsX6oWzDFzywL2W6oWzJGqBXOkVh0cr9TQYPtSQ4PtS9WCOVK1YI7UFElz1EpwwVTN0GD7UrVgjplbFrDfUrVgjlQtmCO16uB4pYYG25caGmxfqhbMkaoFc6SmSJqjVoILpmqGBtuXqgVzzNyygP2WqgVzpGrBHKlVB8crNTTYvtTQYPtStWCOVC2YIzVF0hy1ElwwVTM02L5ULZhj5pYF7LdULZgjVQvmSK06OF6pocH2pYYG25eqBXOkasEcqSmS5qiV4IKpmqHB9qVqwRwztyxgv6VqwRypWjBHatXB8UoNDbYvNTTYvlQtmCNVC+ZITZE0R60EF4xvtWCOVC2YI1UL5lRNLZgTq1owJ1a1YI5ULZjj29Bg+2Zu1cHxSk2RNEetBBeMb7VgjlQtmCNVC+ZUTS2YE6taMCdWtWCOVC2Y49vQYPtmbtXB8UpNkTRHrQQXjG+1YI5ULZgjVQvmVE0tmBOrWjAnVrVgjlQtmOPb0GD7Zm7VwfFKTZE0R60EF4xvtWCOVC2YI1UL5lRNLZgTq1owJ1a1YI5ULZjj29Bg+2Zu1cHxSk2RNEetBBeMb7VgjlQtmCNVC+ZUTS2YE6taMCdWtWCOVC2Y49vQYPtmbtXB8UpNkTRHrQQXjG+1YI5ULZgjVQvmVE0tmBPSDh06OPHnjdSCObGqBXOkasEc34YG2zdzqw6OV2qKpDlqJbhgfKsFc6RqwRypWjCnamrBnOXlSiutRGuttZb7nou8Nddcs1Wxt6TvC1dZZRVae+21acUVV8Rui+F+YN+K9rhPRR/bWy2YI1UL5vg2NNi+mVt1cLxSUyTNUSvBBeNbLZgjVQvmSNWCOVVTC+YsL9dYYw0aNGiQ+75Xr140dOhQ933Hjh1birL+/ftTp06dXEG28sortynW+Oc9e/Z03zfio48+avW1EdgntvgzF5fFn6U7kb7UgjlStWCOb0OD7Zu5VQfHKzVF0hy1ElwwvtWCOVK1YI5ULZhTNbVgjg/PPvtsGjdunNvJGzhwYMvPeYdvtdVWa/V3uQhcd911qV+/frTRRhvRZpttRttvvz12e7FwMVjvmDFj3E4fZ6+33nrOoq29996bDj30UPe9FYAyMMe3ocH2zdyqg+OVmiJpjloJLhjfasEcqVowR6oWzKmaWjBnSUqKJC7yeDePv1999dVp8ODB1LVrV/d1/fXXp1VXXZW6detGffr0cbt/++23nysO9913X1eMPfLIIzRv3jx6/fXX6Y033nDOmTOH3nzzTSd/z/LP+e+9++679P777y92F3DHHXd0O5FdunRx7fGu3yc+8QnXvyFDhtAXv/hF9z0Xo9zvxY2Rx4U/W55qwRypWjDHt6HB9s3cqoPjlZoiaY5aCS4Y32rBHKlaMEeqFsypmlowp5GNih8ulIpirzh1y8Vd/d/517/+5dp4/PHH6ZJLLqHrr7+enn/+eeczzzztfv7oo4/S3Llzsz8/Q08/nf/s3kn30j//+U+64YYb6M9//jNdeeWVLbo//zn/etNNN9Gdd95BkyZNolmznsj+v4+53NmzZ7usF154gR5++GF66qmn6KWXXqL//e9/rq0XX3zR/X8PPPDANuNieUxcEDYaty+1YI5ULZjj29Bg+2Zu1cHxSk2RNEetBBeMb7VgjlQtmCNVC+ZUTS2Yszi5KOIdPC728Fq9wp133pl+9atf0dixY12xtmDBAld0vfLKK/Taa6/RE088QbfdditdfvllNHHieDr99B/RcccdmxVi+9M+n/okjRq1HQ0fvhltueVw2jz7utlmm9Cmm27s5O8LN83cZJNh2deNaYvs77JbbbUl7bXXHrT33nvSYYcdluUeR//3f/9H5513Xtbe5XTLLbfQtGnTskJxlisAedeQee655+jCCy/M+nI6feMb36C+ffu2GhMXgbxruOuuu7obRorCF8e+rGrBHKlaMMe3ocH2zdyqg+OVmiJpjloJLhjfasEcqVowR6oWzKmaWjAH5ZskdtllF1f0rbPOOi27fFwQjhgxgk455RT69a9/TXfffbfbaeNTs1xgPfDAA3TVVVfRBb+8ICvEfkSjR492p3g/9alP0Y47bk9bbLEZDRw0gLr3WJc6d/4ErbxKVlittAKtsurKtOaaq1HHtdekT3TqmLX5CVqnc6fWZj/r3GUd6pR9XXPN1Z0rrVy7e3jFFWi11Vd11xEOGjTQXUM4atSorN19XGHI/fjhD3/oTjv/8Y9/pHvuuYeeffZZeuedd2jhwoXu9PL48ePpzDPPbLlxpThVzPl83SDPA87TsqoFc6RqwRzfhgbbN3OrDo5XaoqkOWoluGB8qwVzpGrBHKlaMKdqaqnPwMexFNfEHXHEEbTDDju4n/NOGO+W8W7ehx9+SB988AG9+uqr9OCDD7pTtuPGjaXvfOe4rNg7mPbZZ2/aYsvNqVfv/E5eduWsUOPCrVu3dalXr57Ut29v6te/Lw0Y0I8GNPfPv9bsn/2c5X9eb/Hz/nV/t5n/vzX79+/ncnv1aqLu3dfLisVOtOpq+XWJLF8PuMkmm9Duu+/uilLeLfzZz37mCkI+nfzyyy/T/PkL3KlqvkaRb1ThQri4dpCLYd4FLB5Xg8dCoxbMkaoFc3wbGmzfzK06OF6pKZLmqJXggqmaocH2pWrBHKllgfta3CXLcrGzuKKGT5HyqVyGT+tOmnSvO+V7/PHH0ec+9zl3CnjjjYe5wq5b93WpqakH9evXxxVrRaHWr19fV5z1cfaiPn1q8p9bfa19X/x5cdb9PZdbn+f+WS/qm/WB2+XCkItGfvwM/7mpqcndFdy9e3d3xzHfbbz//vvTMcccQ+eeey7ddddd7jpCvp6wuBHlS1/6Upt5KeTdUb52EH8uMTTYvlQtmBOrWjDHt6HB9qVqwRyphn9slpcCXKBVMzTYvlQtmCO1LHBfP/3pT9PJJ5+cFWgDaLvttnM/492uc845hyZMmEDXXXedK/T49C5fRzd27M/pW986JiuW9s2KppE0bNhGNHBQs9t94x06LsR6925yhWDvumJtUeG3qDhbVMQ1KO6WxfqisNYef18Uib17s03OPn16uyKRC9RB2Th4PKNGjaRPfnIvOuqoI90c8A0tfGcy89Of/tQVj1w4s507d3Zzttdeezn5+6W9TjA02L5ULZgTq1owx7ehwfalasEcqYZ/bJaXAlygVTM02L5ULZgjtSwU/eXCha+L23bbbd2fd9ttt5a/w9fI3X777fSTn/yEDj/8cBo5clu3q9ezqXtW4OVFVKtCLyumnLgrF5O1ncO+/Xq7XUr+vhhDURjyDiaPcfPNN6WDDz7YXe942R8uc3cs880tXBDzKeORI0e6OeNTw/zoG1wLhYvbWW2P9YLtS9WCObGqBXN8GxpsX6oWzJFq+MdmeSnABVo1Q4PtS9WCOVLLQvHMvkI+DXr99dfRf//7JE1/YBpdffVVNOakE2nIRhu4f843bHCRlF+j188Vem1Ov7YUWPn3+S5cgyKsnWxUmHLx1/LzvnlRWJy65l3NdTrn1/8NGzbUXTN47bXX0syZM91p4TvuuIP4uYb1bxnhU8F4TSWukfZcL9i+VC2YE6taMMe3ocH2pWrBHKmGf2yWlwJcoFUzNNi+VC2YI7UscF/5mri//e1vbpePr3V78cXn6U9/+iN99atfpl69e1CXLp1cMcSneYsbLPIds6bFFH94LV5ku4ANitFiLPh3WgpCHv/AAa4g7NTpE+5Gks99/nN08cUXu+cOPv/8c+7u50svvbTV6d/6wo8fI1NfJLbnesH2pWrBnFjVgjm+DQ22L1UL5kg1/GOzvBTgAq2aocH2pWrBHKllYeLEie505vz5891DmfmRLl846PPutCcXOy3XzNWKopZr6hZXTOGfy27tVHHxZ54HPj2c31TS1z2TcL/996Xzf3EeTZs+lRYuXEA33XyTO13ORSKvBS78uMg+88yzWt5tjDuCocH1KlUL5sSqFszxbWiwfalaMEeq4R+b5aUAF2jVDA22L1UL5kiNleIdufVMnz6dfvnLX9KRRx7pbgLhR6esu26XrFjp7k6Fsm0Kv1St3VXMNjX1pHXX65rNVWf38OojjvgqjZ8wzs0nww+h5lPBfJPJ1ltv3XKHcKMbREKD7UvVgjmxqgVzfBsabF+qFsyRavjHZnkpwAVaNUOD7UvVgjlSY6S+8ONXoj300EP0u9/9jo499tisQNnK3c3KD1DmYq+4m7coetoUQilaNw/5juiiawW7d+9GnTp1dG8l+drXvupODRevoeNnJzY3N9P5559PvXr1cuvDdgDjVAvm+DY02L5ULZgj1fCPzfJSgAu0aoYG25eqBXOkxgq/7YKf4cdvwDj++OPdWzL49WfFs/Lqr+crvm/0s6StFYLuusG6n7sHVdceJzNiqy3o6KO/QX//+23uodmnnXaae05i165d3frgZwbWvzs5NLhepWrBnFjVgjm+DQ22L1UL5kg1/GOzvBTgAq2aocH2pWrBHKmxUOz68Vd+/y2/tYNPTe6555606aZ8nV//Vqd281O9XOTYKd8lWr8rWpun4vpA/jPvCg4dNoR2220X+v73v0cvvPgCXX/99e4tKlx08xrZaaed3LMXeTcwNLhepWrBnFjVgjm+DQ22L1UL5kg1/GOzvBTgAq2aocH2pWrBHKkxgNf6XX311XT00UfTRkM3bHl2H39tdX2fFX3LJhTPPLeDNxhEhx12CP31rze54zBz5sM0ZswYGj58eDb/valjx46tjlMIcL1K1YI5saoFc3wbGmxfqhbMkWr4x2Z5KcAFWjVDg+1L1YI5UmOBd/34MSX8Jg9+uDP3jW9KKO7wtVO6y9liZ7B2s0h+jWA/WmedtWnkqG3p3J+f404JF+yxxx7tsl5wvUrVgjmxqgVzfBsabF+qFsyRavjHZnkpwAVaNUOD7UvVgjlS2xu+1o9v9JgxY4a71m/99dfPipF+7maEVo81ca9CK4oWPn3Z+ro2cyl1BWDbeeTX5PFcb7DhYDruuG/Trbf+jd59912aMGG8e3tIaHC9StWCObGqBXN8GxpsX6oWzJFq+MdmeSnABVo1Q4PtS9WCOVLbg+KULxd/7733njvly68w23DDDalv3z7EO3/F8/zaFC6tChhzuVpcI1grtpsHDqCDDvo8XXbZ7+mll150bxMJDa5XqVowJ1a1YI5vQ4PtS9WCOVIN/9gsLwW4QGNVC+b4VgvmSNWCOb7lV5Hxg4f/+te/urt8f/7zn9M+++zjfs7XmbV61RkWKGYQ+XQwF4E9enSnXr160ic/uRedffbZ7hT9rFmz6Ctf+Ur2z3q449noWYGmXC2Y41stmGPmGv6xWV4KcIHGqhbM8a0WzJGqBXN8WBQJQ4cOpU022YRuuOEGevLJJ+n73/++e/BwUxPvOHHBlxd++evO2hYmpmfdTSG1Zwf2yQtx/r5b9/VoyxFb0EknjaH77ruPXnrpJbrsssvccwPrj6+59GrBHN9qwRwz1/CPzfJSgAs0VrVgjm+1YI5ULZizvOVHh6y00krue97pmzVrFj344IN06KGHuoKQHy/Cz/crdv7qC5E2BYoZzrod2OKZgUOHDqGvfe1rdMstt7i1w9cGLu6dwaZMLZjjWy2YY+Ya/rFZXgpwgcaqFszxrRbMkaoFc5anReHHbrnllu6NE3fffbcrBIcNG+beO8unfrnIaHXK107/Ricfn/5ZEbjBBuvT4YcfTldddRW9/fbb9N3vftcd37XXXrvV8TZlasEc32rBHDPX8I/N8lKACzRWtWCOb7VgjlQtmLO8LE4L8p2jt99+u7vZg6/7O/DAA91rxviRI/lpX3trRymsHaNiN/Bznz+Q/v73v7sHdnNxX1wTuPLKK7dZC+bi1YI5vtWCOWau4R+b5aUAF2isasEc32rBHKlaMGd5WBR/e++9t7vW74MPPqBrrrnG7fzxI17y0759Wgq/j73j14zDvly49215KPchhxxCN998sysC+etWW23ljjuf9sd3CJuN1YI5vtWCOWau4R+b5aUAF2isasEc32rBHKlaMGdZ5V/8q6yyivueH+/C/OlPV9CnP/1pGjhooLveL3/Uy6JTv/lNH3bdX+y2vJGl9uDoTp0+QV/60pfotttua1lP/AaX+rWA68NsrRbM8a0WzDFzDf/YLC8FuEBjVQvm+FYL5kjVgjnLYv0vfC745s57k6699mo66OAvUHMzX+/HRV5ucaepWUJrx5AL+aZePejggw/KjvO17qYQho89rgezsVowx7daMMfMNfxjs7wU4AKNVS2Y41stmCNVC+ZoLX7Zb7rpprT//vvTn/70J5py/+Ss+Pu8K/7c7hHv9GExYZZTLgD79aGePbu7XdzDDjvU3R387LPPugKQr/3k9WCPiFmyWjDHt1owx8w1/GOzvBTgAo1VLZjjWy2YI1UL5iyt/Aueiz/+yneBjh492uXeeecd9JWvfIn6D1h0zVibIsIsvf3693Vf+fgefvhhdOutt9K8efPoggsuaLVObDewsVowx7daMMfMNfxjs7wU4AKNVS2Y41stmCNVC+YsjfhLna/9u/HGG2natGmuGBg0qJmKhzu7gsGu8auc7thm8p3B/P7gb3zjGzRlyhR68cUXaYsttqBu3brRaqut1nC9mO3zudWoBXPMXMM/NstLAS7QWNWCOb7VgjlStWCO1OLUHp/y5ceAjBo1is4880x65pmn6dhjR9OGWTHAu0N8mtCe61dx++aF4IDm/u5h0fyGl5kzZ9L7779Pf/nLX2jkyJHUsWPHNmvIDP+51aoFc8xcwz82y0sBLtBY1YI5vtWCOVK1YI7UYjeHX+3Gr3PjBzy/9tqr9OMfn05DhgymgQP5US92Z28ychFYe4fwdiO3oZ///Fx67rnnaM6cN91p4REjRrj1YtcEtlYL5vhWC+aYuYZ/bJaXAlygsaoFc3yrBXOkasGcJVl/Cq/+WW833XQTffjhh3Thhb+i3XbfxRUB/Lw42/lL0169etIee+zmdv/+97//0QYbbNBwDZlhPrfLQy2YY+Ya/klylnGhVc2ygP2uivgL/KijjqIFCxbQrbf9jQ44YD+3C+SKPy4GbPcvLWungns29XDPCTzssMPonnvuoQceeMB9Jj766CP4lHw8uP5iVQvm+DY02H6sasGcWE2RJEeNB75qlgXsd9nlx3r07NnTfd+pUyfq3Lkz9e7d2/1Sf+ihh2j06GNoo402crt/tvNnsj169qAf/OAH7tEwCxcuxI+ICFyHsaoFc3wbGmw/VrVgTqymSJKjxgNfNcsC9rvscgHI7/Dl7/mifr6m6/jjj3eP/Bg3bhxtttlm7sHA9lq3ROVj3rd4U0j+oO9evZpo8803p/PPP59ee+012wFsAOb4NjTYfqxqwZxYTZEkR40HvmqWBex3VeRHevAdncOHD6c33niDbrjhBtpjjz3cO35bPe/PdgGTdNHzHnu7NdGlSxfac8896Z///Ce9/fbb7rPBhaC0GMT1F6taMMe3ocH2Y1UL5sRqiiQ5ajzwVbMsYL/LLj/kmb8ed9xxdMIJJ7gL/PlZb9/85jdprbXWzH7ZF9f9WeGXvHVroH///u7SAX5n8AsvvIAfk48F12GsasEc34YG249VLZgTqymS5KjxwFfNsoD9LrvF4zt45+/ee++lZ555hs455xz3GJjevRc9EHhREdCgMDDTsDj22Vf+DwO+VpTXzdixY+nVV1/Fj8oSwXUYq1owx7ehwfZjVQvmxGqKJDlqPPBVsyxgv6sg3wG8/vrr05w5c+iuu+6i3Xfflbp06WR3/ZqN7cvvC87/w2Dw4MG02267ufcF59gpYAZzfBsabD9WtWBOrKZIkqPGA181ywL2u8wWu3/Dhg1zz3V7/PHH6dhjv5X9Uh9ETU093O6fvevXXJy8NvixMBtsMJh++MMf0ssvv2zXANbAHN+GBtuPVS2YE6spkuSo8cBXzbKA/S6zxfV/Bx54ID311FN09dVXU5cunfNXvVnht3hxR7Tu1Gibv1s1+Y7glu/zNdK/fz/aZZdd6LrrrqN3330HPzINwbUYq1owx7ehwfZjVQvmxGqKJDlqPPBVsyxgv8so7/zVP/j52muvpUcffZQOOujzrvjjX/DuFB/+8q+S7trG+u9b3+VcXPtY7ILW2+rv1/1/+vTlZyU21b6H3CoJY+dLBXgncMyY79KTT852b4/5OHBNxqoWzPFtaLD9WNWCObGaIkmOGg981SwL2O8yu84669AFF1xAL730Eo0fP54Grd9Mzc0D3C92LnRadnoSsHjTSSH/uVfvJurRszt179GNemQWX3tmP+NH43DR039Av0X/nyoWex9n3/w0cLdu69Jee+9Bf7zicpo790382LQB12KsasEc34YG249VLZgTqymS5KjxwFfNsoD9LpPFrt8pp5xCX/ziF933V1xxBT3yyCPEr/fq0WM9GpAVNJXctaqzfnePixcudLmo4yKma9fO1KXrOu7PAwcNoI2Gbkgbbzy0lRtttCE1D+xPPZu6u7/ftWuX7P+7Xvb/6VHbPe1Ta6Nt25WzNkZ+T/D6gwfS8ccfR4899tjHXguIazNWtWCOb0OD7ceqFsyJ1RRJctR44KtmWcB+l00uAvk9v3379qWzzjrLXbh/9tln0xZbbOFO/+a/1CtWANYXYrXCjx9ozLt2A5r7Z0Vvfxo4cAA1Z98PHTqEdt55Rzr4kIPo29/+Fp166g/o9DP+r5WnnPID+ta3vkWf//znaNT2I2nDIYOzjL7u/88FNO8KchFY32bVi0Ee77rrdaHtdxhFN998M82dO9d9XhZXCOK6jFUtmOPb0GD7saoFc2I1RZIcNR74qlkWsN9lstgBXGONNdyNH/wu1xkzZrjdwAEDBuTPdmvwy70KFrt+XOQ2Nze7t1msuGI+H/wYk5NP/h5dfvnldM8999DMmTNp1qwn3I0xzz33nHvQcb38M/5nTzzxhHtf8p133kGXXPJbOu64Y2nrrUe4zE6dOrpikAvMVsVgReX55dPlgwY105gxY+jpp5/Gj04rcG3GqhbM8W1osP1Y1YI5sZoiaY46MLjQpGrBHKlaMEeqFszx7ZIodmX42r/f/OY3tN1221FTU35NWyWvY6ud6uV3GvNpWn6N2Q477EDf//733SnwO++8090Ew4/CWdyO1ZJYuHCheycuF45///vf6beXXEzHHjuaRozYgtbpvHbL9YItp4axfyXXnfbOxsXj5F3VDTfc0D1PkudlceB69a3RGJynWNWCOb7VgjlSUyTNUQcGF5pULZgjVQvmSNWCOb79OLjQmT37Sfr6179OgwYNcq/1qmJxwsVfsas5ZMgG9Ml99qbvnfw9V/hx0Td//vw28/Lx5n+PC5ziZ/W88847NG3aNLrool+7V+zxI1L4Qdt9+vRxb1fhvlRmp9Xd7Zx/z3eOc5HN64/fJvP++++3mZsCXK++NRqD8xSrWjDHt1owR2qKpDnqwOBCk6oFc6RqwRypWjDHtx/HBx98QFdddRWNGjXSnQ5tee0b/oIvi4u5xo7HxNf3bb/9SDpm9NFZ4fdHev7551xxUhR/jYq4JeIKwLo/1grC+gzO5kJw9uzZbpeV35m71VZbuVPtXCR9XL9LZa0I5F3OXr2aMnvRnnvu6YrgxT0SBterb43G4DzFqhbM8a0WzJGaImmOOjC40KRqwRypWjBHqhbM8e2S4ELlzTffpB//+Azq0bOb+yVeFH+lLQLr+9130TV/A5r70YGfO4B++9vf0syZD7vX3S1VsaegPn/BggX0+uuv0+TJk2nChAm09957u0fttJln/HNZzcbB4+OHjP/mNxe5IhjnhKl/DmUIjcbgPMWqFszxrRbMkZoiaY46MLjQpGrBHKlaMEeqFszx7ZLgXZlJkybR57/wOfe4E36ER/2jUdr8Uo/cVn2u7ajx8/o2H74pjRlzIt12223uesfimrT607m+wHzeceUbI/ih20cffTQNGzbU7Za5G0RKOOeLk48F3w3Na/BrR3zV/YcGF8E4H7hefWs0BucpVrVgjm+1YI7UFElz1IHBhSZVC+ZI1YI5UrVgjm8/Dn4ANO+O8Wu8+OL94pc3/kIvjX1r1/rVilg+5XvmmT+h6dOn0XvvvefGjEWIL+rbwGLzrbfecnca8w0ow4cPd0Ug959PnxbjaDO2ksnz3637erTddtvQNddc44rA+rlgcL361mgMzlOsasEc32rBHKkpkuaoA4MLTaoWzJGqBXOkasEc3y4O3gXju11POOEE9/cGDOjvfmGX9qaEomByX3u7a+y22XZrmjBxvHuUS3ENWojCr6BRW/yzYgeSdwP58Tunn346bbzxxu65gfkYGoyvpPLjdnr17knHHnuse9wQU39XcPEe6lAajcF5ilUtmONbLZgjNUXSHHVgcKFJ1YI5UrVgjlQtmONbpChK3n33Xbr99ttp3333pVVWWbGcj35p9WDn/CvvZPLNLFtuuSWNnzAuK/5mtbnDNwaK48CFKb8xY+zYsTRkyBB3Kp4fodJmrCWU1xM/A3G9bl3dNY+zZs1q80gYuwYwDnCeYlUL5vhWC+ZITZE0Rx0YXGhStWCOVC2YI1UL5vh2ccybN8+9AWSjjYa0nH4s984Tn/LlwqmPO6V62mk/dK+24+vOmEa7ce1N0Scuih5//HG3E7jppptQU1OPlmsx246zXHIx2zMbz9Zbb01XXnklvfrqq63mANerb43G4DzFqhbM8a0WzJGaImmOOjC40KRqwRypWjBHqhbM8e3i4LdY8Js/+BQc75q5X9glLwB554/f7sGnG6dMmeJOsTIxFn8FxY4Y7wTy20ROOukkNwZ+RExpT8cX8nWY/fIidujQoe7d07zbWQ+uV98ajcF5ilUtmONbLZgjNUXSHHVgcKFJ1YI5UrVgjlQtmOPbRnCxcd9999FOO+1Eq6226qJrz0otP3uuFx166KF06623trrho/5rTGDf+Ljw20iOPPLIrHDqW3ddI461JNZuxMkfCdNMn/nMZ9xd5/XYKeA4wHmKVS2Y41stmCM1RdIcdWBwoUnVgjlStWCOVC2Y49tG8KNQLr74Yne6cb31uroL9dv88i6DtQcP8ylsPtW4zTZbuYdav/3221EWfBL47uAbbriB9tprL+J3Mvfq3VT6m3OKR8JsvfWWdOONN7hxFsfHbgKJA5ynWNWCOb7VgjlSUyTNUQcGF5pULZgjVQvmSNWCOb5tBF8bd8wxx9Cg9Zupqfbsv9LdAFKTb17ha+bWHzyQzj33HPeMPaaMBWDR56effoYmTBhPW221pRtb6a8FrN0MsvEmQ+kXvzjfPRT6o4X5WFdZZZU2a9anRmNwnmJVC+b4VgvmSE2RNEcdGFxoUrVgjlQtmCNVC+b4thH87tstttjC7TC5BxD3KeGz/9zuX++WHbLDDjuM7r//fnfHL95pWha4AGT52sWpU++nr3/9SFo/K9KL5xq2mYOSyMeHC3Uu0k8c8133Cr7iGK288spt1qxPjcbgPMWqFszxrRbMkZoiaY66JOACjVUtmOPb5cn06dPdL16+0aC0jxypFRWdO3eiUaNG0SWXXNJyh2kZd/8Kir7zMxovueS3tMceu+e7tO5NIQ3mIWZrRSv33e0y9+tNBx/8BZo5c2a73Z2Nnysztyxgv2PV8I/NcsTgByJWtWCOb5cXXFj87ne/ywqnzq4ALN3z/7IiqNgR4+K1e/dudNRRR9HUqVPp/fffx+GWjmIXML8reAYdf/zx2Tj7L7pTu0wWBWDd+tp55x3dG1Da6w5t/FyZuWUB+x2rhn9sliMGPxCxqgVzfLssFL9ki7d/nHrqqe6RKS13aeIv7sh1N0X05ps/ernny/3iF7+g1157DUZdXorjxc9qvOiii2ibbbah5oH5qeBSXa9ZVwC6vmf/sbHNtlu53dq5b85tNdZQ4OfKzC0L2O9YNfxjsxwx+IGIVS2Y49vlAf+y5dNvBx10sHssBz87r4zXluUFUG9XAPK1f//4xz9adv9CFxQ+KMawYMFCmnzfZBo9ejTxQ66L4q+UBWDvJne3+cYbD6Wf/exn7k007XGtJn6uzNyygP2OVcM/NssRgx+IWNWCOb5dHvB1V3z6bcSIETRw4MD8F3Tpritje7tiYtCggXTGGWe4t2gU15Rl5VOpi8D6vvO3c+e+Rb///e/dDTv8vMbipp1S2KAA5LuBTz755HZ7RR9+rszcsoD9jlXDPzbLEYMfiFjVgjm+XR7wL9zbbrvNPXpj4MDmkhaA+Q7YgOb+tNVWW9EVV1zhnp1XRYpikB8Oveuuu2QFL78hpCS7fw3kArZb93XdI4geeOABd51j/ThDgJ8rM7csYL9j1fCPzXLE4AciVrVgjm+XheIXLJ8mvfLKP7mH73IxUbbTv7375I984e9592///fejO+64I2gBEZJiXLzDecopP6ANh2xATU35HcGlKwRru7ZrdVzdnbbnnej2OG2Pnysztyxgv2PV8I/NcsTgByJWtWCOb5eF4hcsvx7t3HPPpc5d1qbmgQPKt/vXJ7+RgL8OHTqETjzxRHr44YdhtNWDdzhvuulG2mzzTWnddbuU89E9XABmx27V1Vaiz372s+66TX4gdGjwc2XmlgXsd6wa/rFZjhj8QMSqFszxrZZFNxQscK+AO/XUU6hnz255AYi/pCOX7yTlIoK/HzFiC7rwwgvphRdeaDXOqlGMix/evdtuu9A666ztrqPDuYleVwD2pbXWWp123313uuaaa9xdzqHBz5WZWxaw37Fq+MdmOWLwAxGrWjDHt8sKP3eN7wA+7rjjqKlXj6yI6F+6U8As737xqeAddhhFN998c6nf+yuhGNuzzz5DRxzxVeqVHbuiCC6VfO1m7cHd22+/vXsWJT+SqH6MIcDPlZlbFrDfsWr4x2Y5YvADEataMMe3ywpfbzVt2jQ68sgjXQHIF+SXrQDkHUAuALn/e+61Bz344INubFxAhCwiQlE/rldeeYXOPOsntMkmw9z7gd01gGU6hd83P32/7npd3bMbJ0yYQHPmzGkzTt/g58rMLQvY71g1/GOzHDH4gYhVLZjj22WFr/+bPHkyHXrooe6RHO46spIVgFxE5IVrLzrgwP3do0SYUMVDe1CMbe7cN+mKKy6nXXbdidZee618F7BMx88VrL2pe49uNHz4cDrrrLNcUVs/xhDg58rMLQvY71g1/GOzHDH4gYhVLZjj22WFL7i/++67af/998+fyVa2AqJP/jw5vo5s0PrNdNRRR9BTT/3XjS1kARGaYmxcwP/733fQgVnhy+uBrwMs1Z3AfAo4s2fP7rTxxhvTaaedlh2/p1qNMQT4uTJzywL2O1YN/9gsRwx+IGJVC+b4Vkvxy5WvlfvXv/5F++yzTzkLwNoDoPkNIMOGDaOTTjqJnnvuuZYxhiwiQlKMi2/i+c9//kNf/vKX3Xrg5yCWqwDMC3h+jM2QIUPc8Zs9e3bw44afKzO3LGC/Y9XwT5KzjAtNqhbM8a0WzPGtFswJ5Y033kjXXXcd7bLLLu4XchlvJOA+c/HKbzL56U9/6u5qZkIXESGpL25ffPFFOvroo93xbG4eULoCkAv4pl49acMNN6QxY8a0nMLnR/kceOCBblz8jEpcu43Ugjm+1YI5vi0L2G+pWjBHquGfJGcZF5pULZjjWy2Y41stmOPT1VZbzX1tamqi119/3d15udNOO7acjmvzSzpyuQDkGyC2225bmjhxIr366qtuTqtcADLF+PimiRNOOMEd09K9FaR2w0qvrIAfPHgwfec732n1Cr9DDjnEjWvllVdus44bqQVzfKsFc3xbFrDfUrVgjlTDP0nOMi40qVowx7daMMe3WjDHhyuuuKL7uvfee2cF307Uo0cPVwBeeumltOOOO7pfxPldpCUqIPoUpxB70MiR29F5553XqgCschFYjG3u3Ln0gx/8wB3bgQNLuAPYp3Yn94D+9PWvf92d0ubHE/Ea5TF16NChzVpenFowx7daMMe3ZQH7LVUL5kg1/JPkLONCk6oFc3yrBXN8qwVzfLr66qu7r3zNHD9z7ZJLLnE7gHwatW+/8hWAvAPYs6l7VgCObLMDmEoB+KMfneaOaXNzOZ/jyH3u378fHXHEEfTYY4+5Xc011ljDjckKwEVgjm/LAvZbqhbMkWr4J8lZxoUmVQvm+FYL5vhWC+b4tPiFuuWWW7pftHkBuFNWANZeqVayAiIvAPkUcL4D+Nprr7k5rXLxx7QuAH/kjmn+Kr9yHT+WdwCbm5vpm9/8Jj3xxBNuZ5p3qPkyhfo1+3FqwRzfasEc35YF7LdULZgj1fBPkrOMC02qFszxrRbM8a0WzPFpcUH9Ntts44qHiy++2J0C5gKwjHcBF9cAbrvdtu5Bwu3xHLn2oL4APOWUU9wx5VPApTp+bN9F1wB++9vfpqeeesrZpUsXKwABzPFtWcB+S9WCOVIN/yQ5y7jQpGrBHN9qwRzfasEcnxa/TLfddltXPPAO4M477+x+GZeuAOzDu5b5NYAjRmxJP/3pWe6uWCaVAvDNN+fQiSd+1x1T3gEs1TWALBeAtbuA+WYWfozPI488QquuumqbtftxasEc32rBHN+WBey3VC2YI9XwT5KzjAtNqhbM8a0WzPGtFszx5VprreV2Wvh7PmU6b948uvzyy2nPPfd0p+HyArDBL+lYrT1HjovWjTceSieO+W5WQDzr5rSqBWAxruIrP/Zm9Ohj3DEt3U0gffLjxwUgPwfwxBNPpOeff54eeOCBlp1q6e4fqwVzfKsFc3xbFrDfUrVgjlTDP0nOMi40qVowx7daMMe3WjDHl/xLtWPHju57fvcqF4BXXXUVffrTny7tg6C5gOBXwfENEF/68hfpySefdHNa1QJwER/RwoUL3U0TX/3qV9wxLeNNIO5NIE093JtATj31VHr55Zfd6wmLNWsF4CIwx7dlAfstVQvmSDX8k+Qs40KTqgVzfKsFc3yrBXNCyDeBvPXWW3TDDTe4B+726t2T+pXxXcB98ncBc//33fczriBiqnwXcDGu999/n+65557s+B3gjmnp3uVcK+C7d1/PvQv4zDPPdJcl3HfffS2FnxWAi8Ac35YF7LdULZgj1fBPkrOMC02qFszxrRbM8a0WzPFp8TzAzTff3BWA//jHP+jwww/PdwDLVkDU5MKnd58m2m23XdzuUZWLP6YYG+/g/uUvf6Hdd9+V1l57zRLu4OYPH19vva5uR5rv4uZHE5199tm033772ZtAAMzxbVnAfkvVgjlSDf8kOcu40KRqwRzfasEc32rBHJ8WBeDQoUNdAXjvvffSUUcd5QrAAQP6lauAqMmFK1/DOGr7kXTddde6XaQqF4HFuPiRN2PHjqXhW2zudtHy6yHbzk+01nYAO3fpRNtvP4ouu+wydwqf/+OEHwuz++67t1qzH6cWzPGtFszxbVnAfkvVgjlSDf8kOcu40KRqwRzfasEc32rBHJ/yjSDdunWjfv36uR2kGTNm0HHHHefupC1rAcjPL+QClguhcePG0dNPP+3mtYoFYH1hyzdMHDP6mLzoy44b74Li3ERt1mfetVyr4xq02267ufdSv/DCC9S1a9eW9dpep4C5XS48Wf7+4yz+bv3fxzwf/fRpWcB+S9WCOVIN/yQ5y7jQpGrBHN9qwRzfasEcn6655prUvXt3Wm+99dw1ZLzjws+R6959XXcTQdnuIuWdv+JO4CFDNnB3xD744INuXqtYADLFuPihyZ/61KfcDhq/SYPnAucnamsF4Cqrrkj77ruvuxyB3+TCNyr179/f/ccKrt8lqWWVVVZx7xvGom1ZLYpB3MHUgvm+LQvYb6laMEeq4Z8kZxkXmplbdXC8EvkXUj1cBPI1V926dS3lY0TYos8DBzW7dx1zIcF3yFYZfl/u7bff7m7m6dJlHXcjTKlO/7L8IO/+fbP/KFmVvvjFL9KkSZPovffec4UfX/e39tprtymeliSyPMr/4r8hGmfxT1v/k8Z/rzXYb6lVB8frWy2YI9XwT5KzjAvNzK06OF6p9fAv3D/84Q/uF+2grIBq80u6BBYFYHPzAHc36W9/+1u3k1TFHcBiTM888zSdc+7ZNHToRtSzZ/f8BpAGcxOjbqeydsy437z7fMwxx7jLEbiwHTRoEHXu3Jl22WUXt16lO3Ot5qnVnxrjTqe7r21LOf5+QSb/Z0TLz/nvtfzdhZkLWn7Q8O/XKLKLny9NUbu48VURHK9vtWCOVMM/Sc4yLjQzt+rgeKUyRSExf/58uu2229xpsEGDBrb5ZV0WuQjk3aS+ffvSSSed5E4D89gKqlIMFuOYPHkSfXbfT9Og9WvHrNj9K8EObstp+z75DuD66ze7yxD4cgQ+ZnwDCBeA/HYQXq8fVwAW/9zNjyvB6qgddv5SFGdYkBUsLAo64sIwz+EyT86H1KoErFtz9SnYf6lVB8frWy2YI9XwT5KzjAvNzK06OF6p9SxYsIDuueduGjFiePaLGIqJkugKitoOWM+ePdz1ZNdeey29/fbbLeOsUgHIu7ZXXXUl9R/QhwYM6L9o9692MwjOT2zWF4B83DbbbBM699xz3SNgeHz1a/Xjir/6v9MyR0V5pzjkXMKxvHJe/4Dof5nzFuQ/Q1x8UVku4Pbq9gDr2m75tvaNdFxo1cHx+lYL5kg1/JPkLONCM3OrDo5Xaj1cAP7nP/+hQw45qOUu4DJdB9jS15Y+96Zhw4bSj3/8Y3r22Wcrdy0gH6+ZM2fSKaf8wL0H2e16thSAJTxumSNHbutO2xfwGl2amzKwAGRcTbaoFMx/UFsK/OXt7IevZMXdU+8QPTqXaMYbRPe/upD+9cpH9JfZ8+jyR9+ky7J/cHnm1bPfptue/5DufZ1o+hyiR+Zl/793F9CrHyxwOS37zB/Vyr9a/VesvLxQXFQU1vd5aaw6OF7fasEcqYZ/kpxlXGhmbtXB8Uqthwukl156kb538klZMcGFRH5nJv7CLoVZUcEPhe7UqSMdeuihdNddd9E777zjxln/+JSyUd93vmmHX9+35567t9y1XaaC3RWptef/FTuBe+21B/3tb39z1/8xvEaXpkBqVQDCRXh8nZ47oZv9/MOsUpuTNfHMu0T3vDaffvOfN+jEu56lA256gra6fAb1v3gq9b5oKjX9aip1/9V06nbhg9Tzwgeo96+m0cAL76chF91Pwy97kPa9/jEac8fT9NuHX6N/v/whzc7yXl+QFZVZGwuLitOZd6blNLIVgEsEx+tbLZgj1fBPkrOMC83MrTo4Xqn1FIXFry+6kLp170qtCsAyFRY1eTeMH4q8+eab0llnneV2AYtxlr0A5N2///73v3Taaae5O7bdjm2DOSiDReHKBfthhx3idjWLazZ59w/XbL3Fo1WKIoq/8l3DtdnKvyyc7wowPik7J/OJdxbSP5+fS2MffIO+ddt/af+rZtKI382gnlmht8KEqbTCuZnn3J85iTqw595HK/x8Svbz+9zPVjjn7sx7Midnf38a9fjVDBp+6UP0mav+Q6NvnUXjp79ENz//Hs2eN5/mLcxvCHH/+9H87NgV1xPyscw/t61uBOkgKwirDo7Xt1owR6rhnyRnGReamVt1cLxS6ymKoltuuTkrnLq64q/UBaDbYepNvXr1dK9Iu/XWW90uoBtnOeu/lmPEbzi55ppr6IAD9ncPvm459VtCi+Jv8OBBdPLJJ7kHQBen65dUAGKhVP/n2my1/O+crP56aC7Rlf99l06b8hJ94aYnqN+lj2WFXVbEnXkXrXD2fbTaz++ntcZNc66ZudqE6bRq5ipZkbfy+KnZ16nZn6fS6uOn0Rrjp9Pq2c9X55+PzYrFc7Ocs7OicOy9NPiiB+hz1/+XfjTpebriybdp6hsL6bX5eSGYn4hetPzq+17ffxwbWnVwvL7VgjlSDf8kOcu40MzcqoPjlcoURUXxddKke2nnnXds9WBl/KVdFrmA7Vl7s8lJJ42hhx9+uPQ7gFwcPf7443TiiSe6axx79+5VymNUvK3EFYDZ8dlkk2H0619f6MZXHB++Ix3XLFsUTHyH8EYbbUSdOnVyP+fdv6232aal0OJTsbPeJrrx2XfplLufp13+NJM6nT81K/zuz4q8KbT2hPtp9YnTaMWJ02kFZ/bPxk+hDhOm5LuBWZGXf73f/Tz/nncK87/bISsAVx53P606Pi8Y18z+/hrjsmJw7CRa4fz7adsrHqMxd71I1/33bXryrY/ovWLZ1b5yn7t06dJmfB9n1cHx+lYL5kg1/JPkLONCM3OrDo5Xaj3FL91HH32Ujj32WBo4cCD16tX6Iv3SWLt72V1f1rvJFYIbbLg+XXTRhfTaa6+4U3H1RWCUBWFdl+qL1ldeeYX+8IfLaIcdRrndTbf7V8ZjxAVg7W7l5oEDaMRWW9Df/34bffjhovtsF/ecPC70+Osxo0e7v3fCd7/j/nze+ee3/H95tu56+QP60X0v0U5//g/1vHAqfWLi5Kzwywq2cdNppaKwc18/xvENflb8vLD2sxXHc0E4NSsEH6RO4x+gfr+cSrtd+RD96N4X6L7XiN6i2k0h2fG85uqr6aAvHEQ9evRw/b/6mmvopptvdt936NB23I0+t1UEx+tbLZgj1fBPkrOMC83MrTo4Xqn1FAUGPzj5l7/8JW2++ebuXax8d2nZHgdTyLuY7jR2VmQ0ZcXSnnvt7h6b8sEH77mxLnRX6sdPUQDytXH//ve/6cADD3RvO+nVu2Tv/C10hV9eAHKRzo8d2ne/z9D06dNaxsvgei1OjXbJ1uXBhxxCf7vlb+7vDRmyIZ1x+hnu+wULF9IL84kumTWXvvrXJ2jYxXy6lk/VTqGVx02llbKirMO4B7Kirba7V1/EacRiMPu+w4RpWYE5jVYZN4VWG3svrXreZBpw6UN02C2z6MrZc+mVumfJzH1rLl355yupb5++ru/MPvvs48ZZFLpo1cHx+lYL5kg1/JPkLONCM3OrDo5Xaj1FkcE7MI888giNGjWK1lhjdXf6tIy7gK367K4z60ddunSiww/nu4L/7e6irR93jOAuJZ/CPvnkk8u7M1tnUZzz1403HkqnnXaqe6dx/bhxvRYFYN9+/Whh3dz89ZZbaPLkye77WW8uoIseeYO2ueqxrPCa4q7ZW2niQ7TCxBnUcvqWi79GRRwUckssEBv9s+Jn7v87JWtzcmZWeE6YkRWeWR+y/ux21UN0wcOv0+y3P6L3awXfXnvtSddef33LeP59552txotWHRyvb7VgjlTDP0nOMi40M7fq4Hil1lNfCPGF+PxKLj4FxwWge2VX2YQCkB0woD8N3mAQfeUrX3K7TbyjFmsBiMUfHxO+m5lPzfM4eFylLgL5/b/9+lL3HuvRdtttQ7dkRdwbb7xRNwNt13VxSnjo0KH07vv5ydRi14xn69F5H9LY6a/QhpdMpXWyAmztcVNpxQlc+D1I+fV8fOfupLwwa1TALQ9bcmvXFE7k08wPZgXgw+6UcIdz7qF+F99PP3voVXpobt736dOm0jvvv9sy7jlvzGm5rrFREVh1cLy+1YI5Ug3/JDnLuNDM3KqD45W6OPhNDOedd577Bd1ymrGu2ChV4VH3ajTuN5/S5hsO+DVxDzzwQMsdpzEVgUVRWsjF3/jx42nbbbelpqYercdVUvlY8H9crLPO2rTffvvSrFmzcBrarNeiANx4k43pg/n5aXy+oO6dBQvo4bc+pJ/e/yJt/vsZtNbEKbTG+Mm00rgptOK4+3OzP3cYz4UfW7uhA4u35WEtd+Wx07J2p+VF4HlcBE6hVcZOpo7ZzztmxWj/X99LP5r8Cj00p7buPlqQrcX83PC8efNabg6xAtC/WjBHquEfm+WlABeo2T7Gwrvvvut2ZD772c/SaquvUvq7gVF+7Mgmm2xCp556Kk2fPr3lwcOxvC2kfleS34s7ceJEGjlypLvpw42hIseCjwO/xYRPa7/00kstYy/ga+DqLR4Lw+8Gfp+PWfZXP1r4Ec1+az6dM/Ul2vL3j9DqWdHFj2vJd97ywqvD+PvdHbsd3Klfvv6PbVC8LS9du/dlRSf/OWtrIheCk2jFCfe4InSlrB8dz7nP7QR+f/KLNON/+eMKuZrlFZg/O7D84L/fpIYG26+aKZLmqJXggjHbx5iYPXs2nXDCCa5fA5rzU46ltlY0Ldq97EPDhw+n733ve3T33Xe7Z+sVtNduYH3hx+/55Wsxx44dS1tvvbW7m9k9888V4w3GVybd6d8+1LVrZ9p1t13oyiuvbJn/+rnHz0fh4MGD6Z3aNZzPzPuILnjodRpx2Qxai5/PN3a6K/Zarvdrub6PTwHnxV8HPj3r/k6D4m156ArQYpeR26r1w+1AcnE4ndYY/yCt/PN7qfl3U+mMqa/SY28tKvzi+M+QZQePm9TQYPtVM0XSHLUSXDBm+xgTvCt2wQUXuF0aPm3KxQf/8i7V6d863XPnWl0X2CcbU2/3HLlvfOPr9Ne//tWdav3ww3w3MDRF4cNf+Vq4++67j374wx/SiBEjWt7NzP2uxG5sVgDy6+t4zY8efbR7tA2/3QTZddddaY8996A99tiDdthhB9pss81ozTXXpEGDBtEHCz6gV7NK6bLH5tI2lz+cFX+T3YOZVxxXFGIPUodxRTF4f+16vNr3fBp4PD/br0HxtqzWisoV+U5jLjon8u4jn4LOvudTwlkx2KH2dfWsfx3H3UebXj6NLvjP6/Qiv1C4Vv21z3+CLF/w329SQ4PtV80USXPUSnDBmO1jTPDdwJMmTaIDDjiAunfv5q4FLGvxtzjdw67dMwIH0z6f+iRNnDieHnroQXrvvXdaHkjcUpgVb3Hg047L8Nu5PtOdwqz9meUi6LnnnnPv+P3a175Cm22+qbvho9WuXwV2//jh1c3Nze607qWXXuouOSjmppgX5sOF8xcVQllhtCD758+9+Dxdf911xPt/Vz75Fu16zZPuZo+1+I0ctd0+V/TV3+nbsgtYWPu7WLwtV2vtt2qn6BN/zeVnBq71i6n0yb/MpBufeYfmLqoBF429bsEtw9ILDv77TWposP2qmSJpjloJLhizfYwJ/mU8Z84cOuOMM9yDasv+yrFGugdF91n0SJIdd9yejjvuWLriT3907w6uvyawvlBbHgVgq0Iwgx9Lw6eiTz/9dPrMZz5DgzdY3/WxlHdgN7CYa9695K/rrrsu7bvvvjRjxoy2u3+1aZmfFYDzP+J3+VKb86LT3lhI37htFq123hT6xLhptBLv6PF1f7U3dLQtvgJaFJr4s/qv4/h5gZkTsyIw+777+VPo+H89S1Ne+4A+qI2/fsj8o2VYdv/f3pnA/TmdeT/7JnYhISQRa02YomiZKm3HoB1Fq9XRDkXpZ7q9b5n3rVeruqktm6AUQyWUGlstba01JftuCUFEbCES2WR7kuu9r/P/349/fvmHK1dyznPOfa7vfL6T53mS/K5zn/v85eq9tgn43zepocH6VTNH8txqJbhgzLYxRm6//XZ3AwI3f+Vp4KrJzUl5dHOnvn3oyCM/Q5dccgk99NBDNGvWrHUalGYN3IdR/rlmf/6dd95xz7AbOXIknX766e55hTvu2Kd1TFU66lo22rxNfHfrkCFDWh/Fsw7uRzzHfBRwjbvZY03LKvf8v1lLW+hXE96mj90wkboOHls0UpMLazd81F7n1sTGI4D4ez5tVs+Ng48AjncPje4wdDJ1Lxx4/TQaMflterfe864zHYmB/32TGhqsXzVzJM+tVoILxmwbY4MbH3748Nlnn0177rm7uwu1fHgv/uOemuW7jssjgGWzNWBAf3fd43a9tqbPHPFpuvjii9yROb4bl5s1Pl2pvVuYGx2+tpKPrPKp3ilTptDvf/97OuWUU2irrbakXr22pYEDB6x1pLUKc13q5rt+KcFBBx9EDz/8EE6Ro/GAH7+2z329poUXJC0tvnzozRX06T9Md4926XjFVOL3+LZ3j3fhJpBv9lhP4xWLDeOrHa2cRB2HT6d2l42lr90zk554s4WW8Uav4e3/YE5SA//7JjU0WL9q5kieW60EF4zZNsYIH6HhZwIe8smDXQPIzVHy16E1s/5eWv6aGxRudPnmi4ED+9OBB+5PZ5x5Ol111ZX0xBN/K5rBF+mNN95wDSE3c0uWLHGN4fvvL3O/8h28/PXSpUvd3a3z5s1zjzl55ZVXaPz48XTLLaPo3HPPdTc38B2tu+46wN0U0XqUtYrzu3Ptess+fXZwr347//zzW9/8gTSe7lxTNNst7rsW1wg+8x7RBU/Oob7X1l7vVnvDx3jqOHRM/QaQ+s0XMTeAznqzWnzdcQifup5EnYvt6Hv1BDrv8ddpTv0xh/Xnw5Sz4f4vFfC/b1JDg/WrZo7kudVKcMGYbWOsjB4zmr7xjVNaG6Pk70L9KOtHA7kZ6917e9qu1zbu55/4xAF0/PHH0Vlnf5v+3/87z53CvOGGG+iOO+6g++77E93/wP30QOH9999ffH8f3XnnnXTzzb93DTRfS/n973+fvvrVk+jwww8vGr/dqNf229IOO/Ry7yluPd1b4bnl7ePtPeKIw+mvf/3LWo/eaWStI4Cr17ivVxc/XVT8eucry+izt02jLa4YQ524cRo60R396zhkbNEA8iNXuAGcEG8D2Hjkzz0fcEKxHfxswHHUjR8YfckTdPio5+ihuavpfXcUkO9K50OBtfngZjiVFhD/+yY1NFi/auZInlutBBeM2TbGRnltFv9D/ZuLL6JDDjmo+Ee8dg1XVY9SrWX9eXX9+TEsO/ctGsFtW/fVVltvToP23Yc+/enD6Nhjj6YTv3wCfeWkL9NJhfzrl4vv//Vfv0if/ewRdMABH6cBA3Zp/bs9e/Zwb/Rw2e6I6gdHHqt0zR/Kd5Lvtdce9KNz/jfNmfPqh95M03oEkK+1pNoz8l5aSvSL8XNp62smUI+i6es0jB/zws/Y47d8jKf2Q6ZQ7cHL/Aw+T4952VhdAzjRPaKmdtMKN698FLD2fafBT1Kfa6bST8a9Qy8uLrf8g0sOWtz3HzJxEYH/fZMaGqxfNXMkz61WggvGbBtjhU9p/s/fn6BTT/0m9SkaF75RocqNSq255Rteytfg1X7OpzC5YePTtfwrX5/H87H99tvR1ttsSVtvvWXRGG5B2xRfb7PtVu6aPj6CyEcSa6eU+7vTypyz3juqd+FTwBW72abeSPN8fPFfv0B//OPtxZqCR78AfMTPnfKs/z5fE/fYnEX0b/fPdI1SV3e3b+MRPz6dyg0gH1Ubk0ADyI3qWOI3hLjGdch04gdEdy5+1qNoYA8dOZUeeW15vf2rz5E7ELiaD4u2zlPM4H/fpIYG61fNHMlzq5XggjHbxpjho4BXX321u1lh4MCBxEfE+Ghg7R/4CjaD6zvC2XCtIFveRIJ/rvHn5eNPPnDdP18p6/PTeqNNX37tWz/afffd3TuY+UHXfG3ph1F7Ky7f+Vu79u/tohO6dvoCOnDUDOo0ZDR1dA1ew7P26o1V7esQz/nbBLpxlttRG3uHwu6Dx1K3K8fQ1c8tormNN6A375WjBf/7JjU0WL9q5kieW60EF4zZNsYMH4l5+umn3R2r/frxKVE+FVw7HezesoFNQMUtT9eW1+01fu/sV7ds+ppkVNqyUd6lNld8owvf9HLXXXe5m2Y+itZrAFtWE7eKMxavpv/72Gza5upJ1JXf79uswWv2sxjFaxQbvuft6sqns4ePoe88PocmvFu+mSax7o/0/66EButXzRzJc6uV4IIx28YU4MeW8JGcXXbZpW6GzU2j69n+7OelLp/q7tePT5vv6m6E4aN/5WN01nf611He9LCqxd0MMXreajr57meo3eVPUZfh9Tt9sbFqbKjwZzGKjWD9Z52KBrD78HF0wG3P0T2zl9A6LeCHTFtM4H/fpIYG61fNHMlyq3HHS00FHLdvUwHHvSnl13Xxr/xeYGbChAnuuYD8+BI+tZdto1Me2StP57Z+n+kRv2bWj4butvtAOuaYY+iRRx5xa+jmm2+mLl26rLPW+OHQ5ddjx4x1f5bPgC5YRXTPK8vpiFumUrtLnqTO/OiXxle9VUw+DbwlP9D66il01bR36a1Fi+jZZ59187G6ZTUNGjRorc+m1KqD2xurhn+ynGVcaFJTAcft21TAcW9KO3Xq5H791re+1Vrvscceo6OOOoq23XZb6sd3se6ccSNofmB9DXxwGrz20PADP3EAXXPNb10Tc/TRR9OYMWPc0WNeVx06dFhrvZXfH3/88e5AFx8rfGMZ0ZVT3qVB/zWZ2l02hjrzDRRVbwD5COcV0+iCp96kd+rXAa5oaaFVq1bQueees868Saw6uL2xavgny1nGhSY1FXDcvk0FHPemdvPNN6fddtuNTj75ZPrLX/7iHmg8ePBg+vjHP069++ywbiNgmjvXr/0b2J++fdaZNGXKZHfq99hjj3VrqtkRQLY8qvWJgz7R+sy7FxevpvOemEN9r5lEXV0DWN3mj+XrAHu6h1lPpu89+hpNXbCMlq1uoZb6qfOW1SupZ8+ebp4aj5p+lFUHtzdWDf9kOcu40KSmAo7bt6mA497Udu/enQ488ED3NR+5YaZNm0Y/+MEPqHfvXu7IT443gpjNrT32Zhfadrut6YQTv0T33Xdv61o97LDDWk9hNjuKVTaAI0eNav07U+evpH9/cCb1HDGRul1evwEEr52rksW2dXbbOI6+dv+L9NDrS2hJ0fuV105e+7tr3RxtSPPHVh3c3lg1/JPlLONCk5oKOG7fpgKO26dbbLEF3Xjjje41Z/ymi2O/cEytAay/49U1AXY6OFt5DdQe/7Iz/eM/7kvXXvtbevfdeXT33XfTr3/9a9pqq61ov/32W2ddsWVD06VLZ5r+9NOt63vsOyvo6Duepg7DJ1JXPjLG18dVvAFsz885HDaa/uWu5+iPLy+ihS1Eq1bWHp1zxhlnuHmyawDXBrc3Vg3/ZDnLuNCkpgKO27epgOP2If/j3HjEYcSIEe5Zbnwq+IAD9//gwcZ2E0TWcgPID33m50X+/Oc/d3f93nPP3U3X0/p+xpccvDV3butdwk/OXU6fuJkfljyOugzjO4ATec6f1mLbOhaNbodh4+iwO56jG5+bT/zgnLnFnJx77n/SnDmvuaPy65vH9Vl1cHtj1fBPlrOMC01qKuC4fZsKOG6flkcd+vbtS5MnT6bp06e7u4L33W+QOwpY3vmJjYFZbcsbP/gVd7wOzjzzTHrqqado5cqV7n8s8Jrh6/7wf0g0s0ePHnRG8ffLt94+8eZy+of/mkjtLh9LnXNoAAs7skUDuP+oaXTVlLm0tJgH/qzx/Jx22rdohx12cF9/1Fw2WnVwe2PV8E+Ws4wLTWoq4Lh9mwo4bt+WdwZvueWWtGjRIvcP/XHHHdf6bltrAPOTrwHl/b/jTr3p6KOPonvvvZdaWmq3r/JlA7xepM1KeYPImvorzx5/cwXtfUPRAA4eR12HT6H2Q8cVTVKkr3rbRPIRQH7byb43T6XB499wzwLkSy9wrjbEqoPbG6uGf7KcZVxoUlMBx+3bVMBx+7T8R3zAgAH0sY99jD73uc+5IxMjR46kzxzxGRqwa/9aA+hct1Ewq2f5yJed+u5YrIHDadiwoe5/GJSncHENfZT8Pyy233771gbwsTdX0h43TKJ2lxcN4LAp1CGDBrBTIW/nviOn02XjXnfHQi+88EL3Sj2eG5wziVUHtzdWDf9kOcu40KSmAo7bt6mA4/ZpeefmkUceSZdddpn7+re//a37B/+iiy6iPffakwYO3LW1OWi9O9iawWpZf8Vb7eu+xT4fQPvssw+df/75NHv2bHfql+EmENfQR1keYS7+snsQ9ONFA7hnvQHsMnRSrQGs8ilg9zaQSdSxaHL3HTmNhk18y83DN7/5TTr77LNozz33dPMjPaJaWnVwe2PV8E+Ws4wLTWoq4Lh9mwo47hDyc8jKR8OwQ4YMcRf8//jHP66/Kq5sDmoNwjoNhFkJeT/zUd/+/fvT97//fZo4cSItW7bcrUvtEcBSfucZHwP8+9yVNOimybVTwHwNIB/9q3gD2LneAB5w69N0w7ML6O1lLe7I6KWXXUqnfOMbbn7sLuC1we2NVcM/Wc4yLjSpqYDj9m0q4Lh923jkgR/pwU0fv+v10UcfpRkzZrhGYK+99nA3BJSPBcHGwUzf2jV/fdzRv1NPPZUefvhhWrx4sVuTje/55TfGdO7ceZ11tD67du1Kv7n44lpO4eSFRIfcOt3dBdx1KDeATZqmCtm+sGv9SOdhf3yObntxCb0+fzF98pOfpOlPP0OPFJ8z/BxKrDq4vbFq+CfLWcaFJjUVcNy+TQUcdwjLuzn5gn1+TdzVV19N+++/Py1cuNC96uuss75Ne+yx27rNnzsiuG4zYSZk/RpPbgC5wf/Sl45zzd+ihYtwaTr46CDf2YtrCC0bGm4YmbKJfGE50VF3v0DtRkyi7kVj1M69JWPdxil5ywdcF3YrtrP90PF09D0z6a5Zi2nJyjXU0lJ7DuD7y5fT1ltvvdacSaw6uL2xavgny1nGhSY1FXDcvk0FHHcoG//x4QvU+RqwWbNmuTE98sgjdOaZZxT/mG/j3hfsrgW0U8HJW2vo+7qbgLj5P/HEE+jRRx+hBQsWuP3eeOSvBNfN+izXU58+fWjhEn7yXS3rmSL6Gw/Nop5XT6LNLuMGqYINYEPzx3YfPsk98Prrf36BnnhrKb2/onZDzMKlS+imG2+i3jv0Xucz+FFWHdzeWDX8Y7O8AeAClVp1cHt9mwqNYy6vQxo+fLhrAD//+c+3vrLqz3/+s7twnV8Lxm+GsDeFJGz9qC3f7cv7snv3bnTKKafQ/fff724AaqRZE7ihNEa8tGgN/Z/Rb9COv5tM3S4dR+2HV7ABZBsawB7DigbwinH0vcdfpunv1W6omTp1Ku39sb3dQ6A322yzdf774UstmCPVMDYWW0UbAH4ApVYd3F7fpkLjmMsG8PTTT6fbb7/dfb3zzjvTddddR0uWLKEHHniATjrpJHdjCB854qOB9pzANHXXc/bdkfoP6Ecnnniia/54HzONTd+maABpTe0ZgmtWr6G3l6+ha55dQPvdNI3aXTKaOlXtCGDjtgzjV8BNpJ58s8uVY+iX416nt1bV5vO1Oa/Sd7/7H8SfL/6cbcjRv41RC+ZINYyNxVbRBoAfQKlVB7fXt6mA4y7/IRo0aFDrGwrYH/3oR+6mgDvuuIO+/vWv01577UUDiuahbCawwTAjsuE6zfK5jvwMOr7Zh5u/P/3pT/Tuu+/i0tiErHJngLmZXLx6Nf3ltWV01G3PULtLR7vr49ZpolK34ehfh6ETafPhU2i7342j66a9414Dt6Z+VJ1ZsHCBewYnf8bKxzL5VAvmSDWMjcVW0QaAH0CpVQe317epgONmG49GlM9x4wvVV6xY4a4Pu+eee+i0006jgQMHuiNI62s2zIisN+nlo1523XWAa+TvvPNOz80fUzvqtbKlhZavWU2T562k0+9/sWiQxlEPd4NE4kcB4ahf+X2Hws5DJlCXKybTMXfPoAdmLaYVbirWuCZw5Yra6eATv/xl9xnb0EfBaNSCOVINY2OxVbQB4AdQatXB7fVtKuC4S/loRHl3cPmzW2+91f2d9957z90p+sMf/pD23ntv6tOn9s7Y1usBrQmMTveGDz7tW3zND/fm9/vyad958+a5I3Plqd5NcsoX4PcAP/30M+7rlatbaM5Sol88+RrteN1k6jGk1ii1NlHYTGGzFZsNR/vW+vmQ8e4VcN0Gj6P2w8bQ+U+9Sc8tIvcQaJ6R8travxafI74Gkz9fIU4Da8EcqYaxsdgq2gDwAyi16uD2+jYVcNyNlqekDj74YPr0pz/tvv7iF79Iy5cvp/fff9+9N/inP/0pHXroJ6l3n+1pp536tJ5ixAbEbDv5Zo8dd+xTNOo70Cc+caA7nc93dpdv+Cjx0fyV9OvXj6ZOnea+nr9iNY2asYCOuP1Z6jB4jHtV2jqNH36PjVcsrqcB7FA0f53rDeD2V4+lP7ywmPipiq7tW7OaWlpqDeB//Md/uM9ViKN/rBbMkWoYG4utog0AP4BSqw5ur29TAcfdaHlEgk//HnDAAa0//973vuf+7rJly+i5556jwUMup899/rO1x4rUjzTZUcA2tv6MxrIh5+b8n/7pUPrlL39JL730kjud33jkzze8biaMH+++XrpqNf39nZV05iOvUPvh46jb0PHuOXm1RmpivYkq3xBSfh+pjQ1gw/j5qGbXweOpy4hJdOydM2j03FXuRPhqdz1ki7shhpnz6mzq1s2OABrG+rBVtAHgB1Bq1cHt9W0q4LjRxn+UyjdA8ONgGG4e+CjSq6/OoZEjR9IJJ5xAO+64o7s5hB8svPMuOxYNSO39wdwcrvMgaXOTWt6MU/7ar//O1L//LrTVVlvSF77wBbrxxv9yp3y5+QsJtzpP/O1x9zUf+eLToK+tXE1Dpr5J/W+YTJsPKxqloWPds/LaDZ9KHYbwmzPGFF+PK5qpKRRtE1g/6tdxSGPzytczTnTvOe5y8VO063WT6dopb9HsYsprx1tX0qpVtfnnu+t79erlnsGInztfasEcqYaxsdgq2gDwAyi16uD2+jYVcNzN5CawPB3Mb4G46KKLMIaWLl1Kjz32mHu0xa679nOvjtt11/5FM/JBc+IeIN2kcTE3jeXRPv6VGz/eB/zzs88+ix588EHcZcGO/pW0rGqp3w5CtKzwgdeW0r/e9QJtPmIydXUNIDd83FDxK9T4+6KxcncJR9oA1u0whH/lt5rwY1/GuKOZm/H3lz1JX7zjWZo4v/h88Pbzhrujf7XTv/Pmz6d999vXfa5C3AHMasEcqYaxsdgq2gDwAyi16uD2+jYVcNwfJTeAW2yxxVoZZSPBTeDYcWPp5z+/kP7p04fWbgxxzUn9usDy9HCT5sXcCN2R1sbva3N86KGfogsuuMC907nZM/5Cwe3O6tUtrnZ5DRwfF3ypGNKQojsacP106jxsLHUsGsCOQ8ZQB27+Wo+ocRO4btMVje4oIDepk4nvam4/7CnqPGQ8db9sHO11wyQaPOltentl/T5oPu1bb/74FXDM9ddf5z5X5d32vtWCOVINY2OxVbQB4AdQatXB7fVtKuC4pa4PPiX8+uuv0XXX/46+dPxxtN9++7rHxfAbJ1wj6BqUJk2MqdNd67cj9d25dgPOrgMH0KB9B7nT8ddeey299tprrdf7NWN9P9+UlBVailq1o2CrikZohTslOvYdoq/cO5M6jhhDXYdNoo6ukSqaPn5DyNCJ1H7ouNr32HjFomtUJ9e/rh217MHbcNloOvsvL9KE99bQ8lq/W2v+iuZ35crae4DfmTfPPU+TP092BNAwmmOraAPAD6DUqoPb69tUwHFL5FPCHwaf4lq4cCGNHTuWzjnnHPrUpz7lHjq8yy671F8lVzaCcDSwvGkBm5zMXeemmvoNHrWva6d7a81ffzrssE+5x/Pw6fgVK1YWPccHDV6IZq8p9bIrV7tbIKj2YOjl7vEwb64guv65+XTQqMnUfvAE6jL06aKRKk+n1k8Fwx22ccmNKj/LkE/9ji3GPI06Dp9Oh416hm59dh4t4IN+bkuL/180f+X1l/MXLKD+Awa4z1Ooo3+sFsyRahgbi62iDQA/gFKrDm6vb1MBxy31wygbDX5czMyZM+mWW26h73znO/Txj3+ctttuW/dIEr5JpHajiDV8Gnnu+PEu/GiX7XptQ/v94yD69re/TTfddBO98MIL7jE9tX3Rho0fsHzVKlrR0lI0pauKMa2iljX8YOg19PySNfSTJ2fTzr+dSJtfNrF+FJCbK747GBqutmwGm9Yuj1SOpi5DxtJmg6dQr2un0q/GvkUvvrfKNbx828sqvvavPg8vzJzp3v4xYsQIOvnkk93nyR4DYxjNsVW0AeAHUGrVwe31bSrguKV+FI1NBz/0dtKkSTRs2DD3Dx6fFu7Va1vaYYde7sjVLv3q1wg2aXTMBt1c1ZrmHXpvXzTT29A+++xNX/3qV2no0KE0evToteY+lsbvo+BjYn+fu4y+89CLtP2w0UUTyKd8J7rTwB3KV8Vh81U+dmWdhmwjLXPLbPy+2c/cqevx1PPysdRnxAT61oMz6X/mvk98lV9jA75sxQq66fe/p2233ZbOP/989yDuq666yl1Xy58pewyMYaxLlqsIP0hSQ4P1pVYd3F6pWjDHtx8GNh7l42L4qNT48ePpwgsvpKOPPor6D9il9j7hoqEpbxixU8DrWs5JOUf8Ht/ddx9I//Iv/0wXXPBTGjt2HC1ZspRWreIja/E2feeddx4NHjyYXpn1Ci2Yv8BdJsBvlVm+bLm7S/b+1xfTCffOoO2KxqrLEG4AJ1EH/rW8Cxgbr011d/D6Gkmsw9citl6PuPa4egyZRN2KhvXYu1+gu2cvpXkt5fWOMAnAR/z2esHPY9UMDdaXavgny1nGhSY1NFhfatXB7ZWqBXN8q4WPUs2fP58effRRd7fwnnvuSZ06t3dNIL+ftl/9erZ1GqCKN4blQ7Td99wQu19r285v0ajdSLOLuwN70KB/oF/84hfuTSxLlix2jXXMjR9z9DHHtK4dfvAxb8fmm29OW221VfE/Cia4P/Pu+yvozlcW0T/f8TT1uGI8dR88vvaIlSH1ZwFeMa5oCstrAvnGC3Yjm0BoKvmUc2ntz0wsxsB1+MaU0cWfG1OMp/j9wVMKJ7sHPm82jN9mMoYOuW0GXffsQnpjee2RL7X7ff2An8eqGRqsL9XwT5azjAtNamiwvtSqg9srVQvm+FYL/12+QaGlpYWef/551xD+8pe/oM98pvaqua232dLdMVx7mPQurac8y5seqvow6bLhK0/z8o0dLF/rt802W7u5OfTQQ+nXv/41Pf744zRr1qzW6/wYbgBjbALLEfH4+RQnXuv22c9+dq0//8YyoptnvE9H/mF60XQ9RT2G8Tt1x9YeDcN3BLumrfaw5bJhW6ep2xDX0wCu9Xv8gOqypjsKyHcm1+5O5reY8EOrD7nlGbpy2ns0axk/6plv+ai1f752CX4eq2ZosL5Uwz9ZzjIuNKmhwfpSqw5ur1QtmONbLXw0i68D/PrXv+6O/t166620ePFi96Bifq/wl7/8Zdpnn31op512cm8V2XnnWgPIDRI3Ru6awbrYRCVnw7aUN8SUb0zhV7fxn9lzr93pxBNPoJ/97Gf08MMPu1PpfKo3NRobv8YHi/Pd4TePGkV33XsvPfvcDNcxvrFkDV3/9Hw68o5nqOuVY6nbsKeoEzdaQyZTx6FT6k3a2NodwpviOYHNTgE3Nob8eBd36rf2vL/2QydSp6IB7DZktDsq+anbnqOrpy2k2Ytr9/uu4Vs/Gu6+9gF+HqtmaLC+VMM/Wc4yLjSpocH6UqsObq9ULZjjWy0/+tGP3LuE+chPmcWPLXnzzTddY/Pkk0+6hxdzk3jkkUfSoEGDaLfdBrrGca0mqfGawVabNFmo5M/4sjzCV29eeRv69q39Hv+Mj/gN3G1X+odB+xTb/pliDr5Kl156MU2cONFdL8dHTRuP9MV4xG994Pphy6bwoIMOoi996UvUtWtXmj//Xffn5yxbQ79/YSl98a5naOtrJ1GPYZOo0+Cp1G7IVOowdFzRCD5Vb8z4qBw2bE0aug1xrSw+wjeWOg0Z695Q0m7o1KL2NNpiyETqfcUYOuaOGXTDM4voFXcwlu/4+OBu3/Khzz7AuayaocH6Ug3/ZDnLuNCkhgbrS606uL1StWCOb7U0ZjQ+/Javb+ObBLjZWbRokbtr+MYbb6Qf/OAHdOyxx9InP/lJ2mOPPdyRsZ369nHXCrLuGXitp4lrbvTRwbWayg/JKmvt0nBquvzzrb+u/ee5ie0/oF/t9G4hN4G9e+9QNLm70SGHHELHHXeca5JHjRpJL7zwPL399tu0bNmypJq9ZuD6Ke945SbwpZkvuT9zz733ukem8BV0q4rtfWMF0f2vLqVT//oK9btmAnUfOp66DCsasGGTqYNr/CZRuyumfNAE8tHAjW0AsYnkX4fzc/4mUdchk2mzoVOo0xWTqPe14+nMB1+ke19eQXOX8ZMNufnjm3AaTvu6N574AeezaoYG60s1/JPlLONCkxoarC+16uD2StWCOb7Vwg+9ZRubP/6eT/Xy6cBzzz2X3nnnHXe0ix8f8+6779K4ceNo5MiR7sjgN7/5Tfr85z9Le++9J3Xv0cX9/S226Okei8JvGuE7ZPn6QW6y3LPy6g3aOs2bB8vGs3zGITd55Vj4usbexRi32GIzN+YuXTvSXnvt7rbl3/7t3+gnP/mJa3j5Lmm+SYZP9SKxXucnAddP2QBut9127hKA1q0qmqY1LXwqtXb94KKVq2ns28vp4vGv0ZF/fJq6Xl00e5eNo+6XT6RORTPWbni9AcRGrrGhw581E/9c8T3f4NGxyO40fDJ14dO/g8cVDedYOvyO6fSrCa+7R9fMW7XGveHE3fLBR/zqPR9fB+hO1HvaXTifVTM0WF+q4Z8sZxkXmtTQYH2pVQe3V6oWzPGtFswp5SNBBx98sDvVy3eGHn300XT99de7a9/4aCDDR8P4COEf/vAHuvTSS+iH/+v7dNJXv0JHHHk4Ddp3H+qz4w602WbdisawK2299Za0/fbbFT/r3Xo9XdmUlQ2au6bQ+cG1eB9pv9pRPP57ZU75PR/h26nvju7hzPycw6222oJ69CjG071b8bM+tO9++7rT2vzcPj7t/ZvfXFQ0tjfT5MmT6a233nLbyI0vknLjV4L7u2wAe/fuTcuW196L66hvJvdRK1bV3pqxosC5CFkAACnuSURBVNj2mYtb6A/Pz6cfPjqLDhs1nTYbOpo6XPIkdbmM78Cd4I4IdnCvj6tfE9jY0OFRQTzCB7/HbyDpVOR1GTKBul06ltpfPJq6jBhPB946lb7z8Ewa9dzbNHNRCy3h/5HSOvAPwcOuw/msmqHB+lIN/2Q5y7jQpIYG60utOri9UrVgjm+1YE7ZCPAjQc4++2zaYYcdisZte+rSpXZ0j+XGkBsgPiJY3gCxYMF8ev6FGfTUU3+nW24ZSb/61S/ozDPPoKOO+jwdcshBtM8/fMw9K48bPj4CyKeNa01g+To6fjfx2ncVlzdg4JG9tXRHFMuGsGwEa5nlnbu7FXX5CCVfy3fwwQcVYzqKTj311GKMv3LN65gxY9zbOvhUNzd8t912m9u2j2r0Puz3Ymd9+71v377014f/SmecfgY99+xztKreAJ900lfovB+f577mt4fwTxcWu37qgtV03YyFdMoDM2mf/5pI2181jroPG0+bDeabMsYXzSA/PHpi0cQ1XBvY2BSW37u7eWtNX/via/fauWF8xG+Cy+GHOvcscja/cir94++m0LcefJmumf4OTSnqL+MxrSwb9TW08L333Nne2u6pvfjXffnB/9vk4HxWzdBgfamGf7KcZVxoUkOD9aVWHdxeqVowx7daMOfD5KOCZSOIcDPEzeCy5ctcM8hH0PhGiddff61osEbTHXfc4R46fO6557g7jo888gjXbODbFrp06eyeSbfNttu45rNsQNd2u8Jtiz+zJfXcvBt16vzB3+dT2exmm23m3nDCRy65kb3oooto1KhR9MQTT9Crr77qmr3XX3/djbOUH4fzta99ren2VQ3ct6V840evXr3c13wpAN8BztdClr+/77770vtL+THR3ByvphVFP/XOiqIRXER066yl9IPHXqSdb5hE7YY85U7R9hg6mbYcOoW2HD6Veg6fSN2GFw0dN3XD+D3DE6jzsJpd6j/rXrh50QBuWfy5za7gJnBckTWa2l3+N+p/7Tg67S9z6M7n36PJRdH3iI9GEr388stum+699143Xv4fL6HBeayaocH6Ug3/ZDnLuNCkhgbrS606uL1StWCOb7VgTqPcAHCDVlr+nBusDYGvn+Pr6GbPnk0zZsxwp5D57mJuuPgB1NwcXnfdda5B5Acq880nfEr2rLPOotNPP915xhlnOE8/g7//VvF7ZxZ/5gf04/P+L/385z+jyy+/rMi4lv70p3tdk8fZfHp6zpw5RUO6wN24wa5YsYLuu+8++u53v+tuZOFTwXxnMz8Cp9w+3taqg/sa5X3f+H15jSg3iEsWL3EZq8q7atfUHrT8TvH/pr+3hh54dSldNW0ufeeRF+mQ26dSu2vGFM3gk9Tu4sJLx7lrBp2XT6g5eGLt1/Lnl46m9pc+Re1HjKf9b55O33rwJRo68U164t3VxCfma9WJFhWN6CHFPjzttFPd+uF3W99y663Us2fP+p8IB85f1QwN1pdq+CfLWcaFJjU0WF9q1cHtlaoFc3yrBXOkro9mp03x+/XBzRkfmeObTrhxe+mll9ypWX5ANTpz5kx3JG/u3LmtDR6Dz+TjZxmec8459J//+Z/uhhVu9Pjdr7wN/AYMbnT4Vz5iyD8rG5+qg/uz0bLZL58PyJY/4+tBp0+bTq+/8abLaXHnWlv4YsnWGy64GZxX7IZJ85bRf898l66Y+Ab97KnX6YePzKbT7nuRTrx7Jh17x/P0z398nj73R/51Bh3z38/TCfe8SKf8eTZ957HZdOH4eXTl9IX04Otr6OX62d2Hi6ae78ie9vR0+s0ll7gjlXy39r9/89/d2KZNn+7+3H777Vf7CwHBOayaocH6Ug3/ZDnLuNCkhgbrS606uL1StWCOb7VgjlQJ62v8yp+XzWJj01h+zdfglZZ3IJe/opjRmMOnrfmUc+PYTzzxRNc4HH/88e55dz169HAPuubfKxudqoP7UyofAfza175azN2X3NV07lHLrgmsXXTHu4D7QH7uMh8gXFW4pHBe8bNZK4umcMFyevTN9+lPs96ju15eQHfOWkh3vryQ7pu9qPj5Uprw3mp6aQW5I30LCv/yt7/RZUOH0umnn0Hdito8hiM+czgdeMAB7uttttmmdWz/feeddN/997smPjQ4T1UzNFhfquGfLGcZF5rU0GB9qVUHt1eqFszxrRbMkbqxrK853NTwkT1+by//ykey8NVnjac6G09zVx3cnxIb56dz586td0q7Zpv42Xv8uBW+W3gVtZSnh93v1H6ff7Ky+OL94ovFLUTvFS6ou6hw2Wo+orim9lfqf5evE+U30Oyx5x5rjWX//fd3lwnceNNN9Ohjj7mjuI2/Hxqcq6oZGqwv1fCPzfIGgAvUt1owJ1ZDg/V9GxqsvzGWpwvL7xtPJeLNHo0/5yaMG4rymYQsN2qNro+PaiSxZrPx4PdtYUq0znjZ47lfucnjN+427o9a4+eaP24SVxe2rH3Udy3d77e0FniXn7/Y8BieCy74qbsJ6PG//a31Z8zPLrzQzWHjetOC+yVWtWCO1NBgfalaMEdqjuS51UpwwfhWC+bEamiwvm9Dg/VjVQv/3bZu7iSmTXl8b+NZ3VLLGTFihDtqe8aZZ9LwK65w/u6662jY8OHuqN9ll1/ubhLafffd3XWdfESQ55HvIN+Y+cT9EqtaMEdqaLC+VC2YIzVH8txqJbhgfKsFc2I1NFjft6HB+rGqBXNiNXVa37i79i8ObukWL11KS95fXLiElixbRksL33d3Zi+tubz4fvlyem9J7R7fH5/3Y3f6d8qkKfTySy+7Zg/njD3pK1+ht+fOdQ/0/trJJ9OVV165UfOJ+bGqBXOkhgbrS9WCOVJzJM+tVoILxrdaMCdWQ4P1fRsarB+rWjAnVlOFT/KWp3mbUf6cr+PruzM/qJsfzt2fBgwYQAN23dW9bpCv0WT5xhx2r733dnf48tE8fksLP7ibvy8vMeBLAsrLBPjSAb4xheeQ/zzf0LMx84n7JVa1YI7U0GB9qVowR2qO5LnVSnDB+FYL5sRqaLC+b0OD9WNVC+bEatXB7d3UNl57ymrB3FjVgjlSQ4P1pWrBHKk5kudWK8EF41stmBOrocH6vg0N1o9VLZgTqylTOwb44ZQ32rDlkbwPs7xus7wJ6MOu48QbejZmPjE7VrVgjtTQYH2pWjBHao7kudVKcMH4VgvmxGposL5vQ4P1Y1UL5sRq1cHt9a0WzIlVLZgjNTRYX6oWzJGaI3lutRJcML7VgjmxGhqs79vQYP1Y1YI5sVp1cHt9qwVzYlUL5kgNDdaXqgVzpOZInlutBBeMb7VgTqyGBuv7NjRYP1a1YE6sVh3cXt9qwZxY1YI5UkOD9aVqwRypOZLnVivBBeNbLZgTq6HB+r4NDdaPVS2YE6tVB7fXt1owJ1a1YI7U0GB9qVowR2qO5LnVSnDB+FYL5sRqaLC+b0OD9WNVC+bEatXB7fWtFsyJVS2YIzU0WF+qFsyRmiN5brUSXDC+1YI5sRoarO/b0GD9WNWCObFadXB7fasFc2JVC+ZIDQ3Wl6oFc6TmSJ5brQQXjG+1YE6shgbr+zY0WD9WtWBOrFYd3F7fasGcWNWCOVJDg/WlasEcqTmS51YrwQXjWy2YE6uhwfq+DQ3Wj1UtmBOrVQe317daMCdWtWCO1NBgfalaMEdqjmS51bjjpWrBnKppxAHuF6laMMdMy9Bgfd+mAo5bqhbM8a0RL1nuHVygUrVgTtU04gD3i1QtmGOmZWiwvm9TAcctVQvm+NaIlyz3Di5QqVowp2oacYD7RaoWzDHTMjRY37epgOOWqgVzfGvES5Z7BxeoVC2YUzWNOMD9IlUL5phpGRqs79tUwHFL1YI5vjXiJcu9gwtUqhbMqZpGHOB+kaoFc8y0DA3W920q4LilasEc3xrxkuXewQUqVQvmVE0jDnC/SNWCOWZahgbr+zYVcNxStWCOb414yXLv4AKVqgVzqqYRB7hfpGrBHDMtQ4P1fZsKOG6pWjDHt0a8ZLl3cIFK1YI5VdOIA9wvUrVgjpmWocH6vk0FHLdULZjjWyNestw7uEClasGcqmnEAe4XqVowx0zL0GB936YCjluqFszxrREvWe4dXKBStWBO1TTiAPeLVC2YY6ZlaLC+b1MBxy1VC+b41oiXLPcOLlCpWjCnahpxgPtFqhbMMdMyNFjft6mA45aqBXN8a8RLlnsHF6hULZhTNY04wP0iVQvmmGkZGqzv21TAcUvVgjm+NeIly72DC1SqFsypmkYc4H6RqgVzzLQMDdb3bSrguKVqwRzfGvGS5d7BBSpVC+ZUTSMOcL9I1YI5ZlqGBuv7NhVw3FK1YI5vjXixvRMA/EBIDQ3Wj9XQYH2pqYDjlqoFc6SmAo47VkOD9WNVC+ZIDQ3Wj1XDPzbLAcCFLTU0WD9WQ4P1paYCjluqFsyRmgo47lgNDdaPVS2YIzU0WD9WDf/YLAcAF7bU0GD9WA0N1peaCjhuqVowR2oq4LhjNTRYP1a1YI7U0GD9WDX8Y7McAFzYUkOD9WM1NFhfairguKVqwRypqYDjjtXQYP1Y1YI5UkOD9WPV8I/NcgBwYUsNDdaP1dBgfampgOOWqgVzpKYCjjtWQ4P1Y1UL5kgNDdaPVcM/NssBwIUtNTRYP1ZDg/WlpgKOW6oWzJGaCjjuWA0N1o9VLZgjNTRYP1YN/9gsBwAXttTQYP1YDQ3Wl5oKOG6pWjBHairguGM1NFg/VrVgjtTQYP1YNfxjsxwAXNhSQ4P1YzU0WF9qKuC4pWrBHKmpgOOO1dBg/VjVgjlSQ4P1Y9Xwj81yAHBhSw0N1o/V0GB9qamA45aqBXOkpgKOO1ZDg/VjVQvmSA0N1o9Vwz82ywHAhS01NFg/VkOD9aWmAo5bqhbMkZoKOO5YDQ3Wj1UtmCM1NFg/Vg3/2CwHABe21NBg/VgNDdaXmgo4bqlaMEdqKuC4YzU0WD9WtWCO1NBg/Vg1/GOzHABc2FJDg/VjNTRYX2oq4LilasEcqamA447V0GD9WNWCOVJDg/Vj1fCPzXIAcGFLDQ3Wj9XQYH2pqYDjlqoFc6SmAo47VkOD9WNVC+ZIDQ3Wj1XDPzbLAcCFLTU0WD9WQ4P1paYCjluqFsyRmgo47lgNDdaPVS2YIzU0WD9WDf/YLEcMfiCkasEcqUZzcJ6khgbrS9WCOVK1YI5ULZgTq1owR2posL5vtWCOb0OD9WM1R/Lc6kTABSpVC+ZINZqD8yQ1NFhfqhbMkaoFc6RqwZxY1YI5UkOD9X2rBXN8GxqsH6s5kudWJwIuUKlaMEeq0RycJ6mhwfpStWCOVC2YI1UL5sSqFsyRGhqs71stmOPb0GD9WM2RPLc6EXCBStWCOVKN5uA8SQ0N1peqBXOkasEcqVowJ1a1YI7U0GB932rBHN+GBuvHao7kudWJgAtUqhbMkWo0B+dJamiwvlQtmCNVC+ZI1YI5saoFc6SGBuv7Vgvm+DY0WD9WcyTPrU4EXKBStWCOVKM5OE9SQ4P1pWrBHKlaMEeqFsyJVS2YIzU0WN+3WjDHt6HB+rGaI3ludSLgApWqBXOkGs3BeZIaGqwvVQvmSNWCOVK1YE6sasEcqaHB+r7Vgjm+DQ3Wj9UcyXOrEwEXqFQtmCPVaA7Ok9TQYH2pWjBHqhbMkaoFc2JVC+ZIDQ3W960WzPFtaLB+rOZInludCLhApWrBHKlGc3CepIYG60vVgjlStWCOVC2YE6taMEdqaLC+b7Vgjm9Dg/VjNUfy3OpEwAUqVQvmSDWag/MkNTRYX6oWzJGqBXOkasGcWNWCOVJDg/V9qwVzfBsarB+rOZLnVicCLlCpWjBHqtEcnCepocH6UrVgjlQtmCNVC+bEqhbMkRoarO9bLZjj29Bg/VjNkTy3OhFwgUrVgjlSjebgPEkNDdaXqgVzpGrBHKlaMCdWtWCO1NBgfd9qwRzfhgbrx2qO5LnViYALVKoWzJFqNAfnSWposL5ULZgjVQvmSNWCObGqBXOkhgbr+1YL5vg2NFg/VnMkz61OBFygUrVgjlSjOThPUkOD9aVqwRypWjBHqhbMiVUtmCM1NFjft1owx7ehwfqxmiNZbjXueLNtTAUct2+1YI5vtWBO1UwFHLfUqoPba6alISfL2cIFY7aNqYDj9q0WzPGtFsypmqmA45ZadXB7zbQ05GQ5W7hgzLYxFXDcvtWCOb7VgjlVMxVw3FKrDm6vmZaGnCxnCxeM2TamAo7bt1owx7daMKdqpgKOW2rVwe0109KQk+Vs4YIx28ZUwHH7Vgvm+FYL5lTNVMBxS606uL1mWhpyspwtXDBm25gKOG7fasEc32rBnKqZCjhuqVUHt9dMS0NOlrOFC8ZsG1MBx+1bLZjjWy2YUzVTAcctterg9pppacjJcrZwwZhtYyrguH2rBXN8qwVzqmYq4LilVh3cXjMtDTlZzhYuGLNtTAUct2+1YI5vtWBO1UwFHLfUqoPba6alISfL2cIFY7aNqYDj9q0WzPGtFsypmqmA45ZadXB7zbQ05GQ5W7hgzLYxFXDcvtWCOb7VgjlVMxVw3FKrDm6vmZaGnCxnCxeM2TamAo7bt1owx7daMKdqpgKOW2rVwe0109KQk+Vs4YIx28ZUwHH7Vgvm+FYL5lTNVMBxS606uL1mWhpyspwtXDBm25gKOG7fasEc32rBnKqZCjhuqVUHt9dMS0OOzZaRHPiBl5oKOG7fhgbr+zY0WF9qaLC+VC2Y41stmCM1FXDcvtWCOVINOTZbRnLgB15qKuC4fRsarO/b0GB9qaHB+lK1YI5vtWCO1FTAcftWC+ZINeTYbBnJgR94qamA4/ZtaLC+b0OD9aWGButL1YI5vtWCOVJTAcftWy2YI9WQY7NlJAd+4KWmAo7bt6HB+r4NDdaXGhqsL1UL5vhWC+ZITQUct2+1YI5UQ47NlpEc+IGXmgo4bt+GBuv7NjRYX2posL5ULZjjWy2YIzUVcNy+1YI5Ug05NltGcuAHXmoq4Lh9Gxqs79vQYH2pocH6UrVgjm+1YI7UVMBx+1YL5kg15NhsGcmBH3ipqYDj9m1osL5vQ4P1pYYG60vVgjm+1YI5UlMBx+1bLZgj1ZBjs2UkB37gpaYCjtu3ocH6vg0N1pcaGqwvVQvm+FYL5khNBRy3b7VgjlRDjs2WkRz4gZeaCjhu34YG6/s2NFhfamiwvlQtmONbLZgjNRVw3L7VgjlSDTk2W0Zy4AdeairguH0bGqzv29BgfamhwfpStWCOb7VgjtRUwHH7VgvmSDXk2GwZyYEfeKmpgOP2bWiwvm9Dg/WlhgbrS9WCOb7VgjlSUwHH7VstmCPVkGOzZSQHfuClpgKO27ehwfq+DQ3WlxoarC9VC+b4VgvmSE0FHLdvtWCOVEOOzZaRHPiBl5oKOG7fhgbr+zY0WF9qaLC+VC2Y41stmCM1FXDcvtWCOVINOTZbRnLgB15qKuC4fRsarO/b0GB9qaHB+lK1YI5vtWCO1FTAcftWC+ZINeRkOVu4YMy2UQvmSE0FHLfUVMBxS9WCObEaGqwvNTRYP1a1YI5ULZgTq4Z/spxlXGhm26gFc6SmAo5bairguKVqwZxYDQ3WlxoarB+rWjBHqhbMiVXDP1nOMi40s23UgjlSUwHHLTUVcNxStWBOrIYG60sNDdaPVS2YI1UL5sSq4Z8sZxkXmtk2asEcqamA45aaCjhuqVowJ1ZDg/Wlhgbrx6oWzJGqBXNi1fBPlrOMC81sG7VgjtRUwHFLTQUct1QtmBOrocH6UkOD9WNVC+ZI1YI5sWr4J8tZxoVmto1aMEdqKuC4paYCjluqFsyJ1dBgfamhwfqxqgVzpGrBnFg1/JPlLONCM9tGLZgjNRVw3FJTAcctVQvmxGposL7U0GD9WNWCOVK1YE6sGv7JcpZxoZltoxbMkZoKOG6pqYDjlqoFc2I1NFhfamiwfqxqwRypWjAnVg3/ZDnLuNDMtlEL5khNBRy31FTAcUvVgjmxGhqsLzU0WD9WtWCOVC2YE6uGf7KcZVxoZtuoBXOkpgKOW2oq4LilasGcWA0N1pcaGqwfq1owR6oWzIlVwz9ZzjIuNLNt1II5UlMBxy01FXDcUrVgTqyGButLDQ3Wj1UtmCNVC+bEquGfLGcZF5rZNmrBHKmpgOOWmgo4bqlaMCdWQ4P1pYYG68eqFsyRqgVzYtXwT5azjAvNbBu1YI7UVMBxS00FHLdULZgTq6HB+lJDg/VjVQvmSNWCObFq+CfLWcaFZraNWjBHairguKWmAo5bqhbMidXQYH2pocH6saoFc6RqwZxYNfyT5SzjQpNqNAfnSaoWzDFrhgbrS9WCOVK1YI7U0GB934YG60vVgjlSUwHHLVUL5kjVgjlScyTLrcYdL9VoDs6TVC2YY9YMDdaXqgVzpGrBHKmhwfq+DQ3Wl6oFc6SmAo5bqhbMkaoFc6TmSJZbjTteqtEcnCepWjDHrBkarC9VC+ZI1YI5UkOD9X0bGqwvVQvmSE0FHLdULZgjVQvmSM2RLLcad7xUozk4T1K1YI5ZMzRYX6oWzJGqBXOkhgbr+zY0WF+qFsyRmgo4bqlaMEeqFsyRmiNZbjXueKlGc3CepGrBHLNmaLC+VC2YI1UL5kgNDdb3bWiwvlQtmCM1FXDcUrVgjlQtmCM1R7LcatzxUo3m4DxJ1YI5Zs3QYH2pWjBHqhbMkRoarO/b0GB9qVowR2oq4LilasEcqVowR2qOZLnVuOOlGs3BeZKqBXPMmqHB+lK1YI5ULZgjNTRY37ehwfpStWCO1FTAcUvVgjlStWCO1BzJcqtxx0s1moPzJFUL5pg1Q4P1pWrBHKlaMEdqaLC+b0OD9aVqwRypqYDjlqoFc6RqwRypOZLlVuOOl2o0B+dJqhbMMWuGButL1YI5UrVgjtTQYH3fhgbrS9WCOVJTAcctVQvmSNWCOVJzJMutxh0v1WgOzpNULZhj1gwN1peqBXOkasEcqaHB+r4NDdaXqgVzpKYCjluqFsyRqgVzpOZIlluNO16q0RycJ6laMMesGRqsL1UL5kjVgjlSQ4P1fRsarC9VC+ZITQUct1QtmCNVC+ZIzZEstxp3vFSjOThPUrVgjlkzNFhfqhbMkaoFc6SGBuv7NjRYX6oWzJGaCjhuqVowR6oWzJGaI1luNe54qUZzcJ6kasEcs2ZosL5ULZgjVQvmSA0N1vdtaLC+VC2YIzUVcNxStWCOVC2YIzVHstxq3PFSjebgPEnVgjlmzdBgfalaMEeqFsyRGhqs79vQYH2pWjBHairguKVqwRypWjBHao5kudW446VqwZxY1YI5UrVgjm9TAcctVQvm+DY0WN+3ocH6UkOD9aVqwRwzLQ05Wc4WLhipWjAnVrVgjlQtmOPbVMBxS9WCOb4NDdb3bWiwvtTQYH2pWjDHTEtDTpazhQtGqhbMiVUtmCNVC+b4NhVw3FK1YI5vQ4P1fRsarC81NFhfqhbMMdPSkJPlbOGCkaoFc2JVC+ZI1YI5vk0FHLdULZjj29Bgfd+GButLDQ3Wl6oFc8y0NORkOVu4YKRqwZxY1YI5UrVgjm9TAcctVQvm+DY0WN+3ocH6UkOD9aVqwRwzLQ05Wc4WLhipWjAnVrVgjlQtmOPbVMBxS9WCOb4NDdb3bWiwvtTQYH2pWjDHTEtDTpazhQtGqhbMiVUtmCNVC+b4NhVw3FK1YI5vQ4P1fRsarC81NFhfqhbMMdPSkJPlbOGCkaoFc2JVC+ZI1YI5vk0FHLdULZjj29Bgfd+GButLDQ3Wl6oFc8y0NORkOVu4YKRqwZxY1YI5UrVgjm9TAcctVQvm+DY0WN+3ocH6UkOD9aVqwRwzLQ05Wc4WLhipWjAnVrVgjlQtmOPbVMBxS9WCOb4NDdb3bWiwvtTQYH2pWjDHTEtDTpazhQtGqhbMiVUtmCNVC+b4NhVw3FK1YI5vQ4P1fRsarC81NFhfqhbMMdPSkJPlbOGCkaoFc2JVC+ZI1YI5vk0FHLdULZjj29Bgfd+GButLDQ3Wl6oFc8y0NORkOVu4YKRqwZxY1YI5UrVgjm9TAcctVQvm+DY0WN+3ocH6UkOD9aVqwRwzLQ05Wc4WLhipWjAnVrVgjlQtmOPbVMBxS9WCOb4NDdb3bWiwvtTQYH2pWjDHTEtDTpazhQtGqhbMiVUtmCM1NFg/VrVgjlQtmBOrWjBHqhbMkRoarG/W1II5vjWMkixXA34gpGrBnFjVgjlSQ4P1Y1UL5kjVgjmxqgVzpGrBHKmhwfpmTS2Y41vDKMlyNeAHQqoWzIlVLZgjNTRYP1a1YI5ULZgTq1owR6oWzJEaGqxv1tSCOb41jJIsVwN+IKRqwZxY1YI5UkOD9WNVC+ZI1YI5saoFc6RqwRypocH6Zk0tmONbwyjJcjXgB0KqFsyJVS2YIzU0WD9WtWCOVC2YE6taMEeqFsyRGhqsb9bUgjm+NYySLFcDfiCkasGcWNWCOVJDg/VjVQvmSNWCObGqBXOkasEcqaHB+mZNLZjjW8MoyXI14AdCqhbMiVUtmCM1NFg/VrVgjlQtmBOrWjBHqhbMkRoarG/W1II5vjWMkixXA34gpGrBnFjVgjlSQ4P1Y1UL5kjVgjmxqgVzpGrBHKmhwfpmTS2Y41vDKMlyNeAHQqoWzIlVLZgjNTRYP1a1YI5ULZgTq1owR6oWzJEaGqxv1tSCOb41jJIsVwN+IKRqwZxY1YI5UkOD9WNVC+ZI1YI5saoFc6RqwRypocH6Zk0tmONbwyjJcjXgB0KqFsyJVS2YIzU0WD9WtWCOVC2YE6taMEeqFsyRGhqsb9bUgjm+NYySLFcDfiCkasGcWNWCOVJDg/VjVQvmSNWCObGqBXOkasEcqaHB+mZNLZjjW8MoyXI14AdCqhbMiVUtmCM1NFg/VrVgjlQtmBOrWjBHqhbMkRoarG/W1II5vjWMkixXA34gpGrBnFjVgjlSQ4P1Y1UL5kjVgjmxqgVzpGrBHKmhwfpmTS2Y41vDKMlyNeAHQqoWzIlVLZgjNRVw3L7VgjlVMzRYX2posH6sasEcqamA45ZadXB7pRpyspwtXDBStWBOrGrBHKmpgOP2rRbMqZqhwfpSQ4P1Y1UL5khNBRy31KqD2yvVkJPlbOGCkaoFc2JVC+ZITQUct2+1YE7VDA3WlxoarB+rWjBHairguKVWHdxeqYacLGcLF4xULZgTq1owR2oq4Lh9qwVzqmZosL7U0GD9WNWCOVJTAcctterg9ko15GQ5W7hgpGrBnFjVgjlSUwHH7VstmFM1Q4P1pYYG68eqFsyRmgo4bqlVB7dXqiEny9nCBSNVC+bEqhbMkZoKOG7fasGcqhkarC81NFg/VrVgjtRUwHFLrTq4vVINOVnOFi4YqVowJ1a1YI7UVMBx+1YL5lTN0GB9qaHB+rGqBXOkpgKOW2rVwe2VasjJcrZwwUjVgjmxqgVzpKYCjtu3WjCnaoYG60sNDdaPVS2YIzUVcNxSqw5ur1RDTpazhQtGqhbMiVUtmCM1FXDcvtWCOVUzNFhfamiwfqxqwRypqYDjllp1cHulGnKynC1cMFK1YE6sasEcqamA4/atFsypmqHB+lJDg/VjVQvmSE0FHLfUqoPbK9WQk+Vs4YKRqgVzYlUL5khNBRy3b7VgTtUMDdaXGhqsH6taMEdqKuC4pVYd3F6phpwsZwsXjFQtmBOrWjBHairguH2rBXOqZmiwvtTQYP1Y1YI5UlMBxy216uD2SjXkZDlbuGCkasGcWNWCOVJTAcftWy2YUzVDg/Wlhgbrx6oWzJGaCjhuqVUHt1eqISfL2cIFI1UL5sSqFsyRmgo4bt9qwZyqGRqsLzU0WD9WtWCO1FTAcUutOri9Ug05Wc4WLhipRnNwnqSGBuv7NhVw3FK1YI7UVMBxS9WCOb5NBRy31FTAcUvVgjmxasjJcrZwwUg1moPzJDU0WN+3qYDjlqoFc6SmAo5bqhbM8W0q4LilpgKOW6oWzIlVQ06Ws4ULRqrRHJwnqaHB+r5NBRy3VC2YIzUVcNxStWCOb1MBxy01FXDcUrVgTqwacrKcLVwwUo3m4DxJDQ3W920q4LilasEcqamA45aqBXN8mwo4bqmpgOOWqgVzYtWQk+Vs4YKRajQH50lqaLC+b1MBxy1VC+ZITQUct1QtmOPbVMBxS00FHLdULZgTq4acLGcLF4xUozk4T1JDg/V9mwo4bqlaMEdqKuC4pWrBHN+mAo5bairguKVqwZxYNeRkOVu4YKQazcF5khoarO/bVMBxS9WCOVJTAcctVQvm+DYVcNxSUwHHLVUL5sSqISfL2cIFI9VoDs6T1NBgfd+mAo5bqhbMkZoKOG6pWjDHt6mA45aaCjhuqVowJ1YNOVnOFi4YqUZzcJ6khgbr+zYVcNxStWCO1FTAcUvVgjm+TQUct9RUwHFL1YI5sWrIyXK2cMFINZqD8yQ1NFjft6mA45aqBXOkpgKOW6oWzPFtKuC4paYCjluqFsyJVUNOlrOFC0aq0RycJ6mhwfq+TQUct1QtmCM1FXDcUrVgjm9TAcctNRVw3FK1YE6sGnKynC1cMFKN5uA8SQ0N1vdtKuC4pWrBHKmpgOOWqgVzfJsKOG6pqYDjlqoFc2LVkJPlbOGCkWo0B+dJamiwvm9TAcctVQvmSE0FHLdULZjj21TAcUtNBRy3VC2YE6uGnCxnCxeMVKM5OE9SQ4P1fZsKOG6pWjBHairguKVqwRzfpgKOW2oq4LilasGcWDXkZDlbuGDMtjEVcNy+DQ3Wj1UtmCM1NFjft1owR2posL5UY9OC8xurOZLlVuOON9vGVMBx+zY0WD9WtWCO1NBgfd9qwRypocH6Uo1NC85vrOZIlluNO95sG1MBx+3b0GD9WNWCOVJDg/V9qwVzpIYG60s1Ni04v7GaI1luNe54s21MBRy3b0OD9WNVC+ZIDQ3W960WzJEaGqwv1di04PzGao5kudW44822MRVw3L4NDdaPVS2YIzU0WN+3WjBHamiwvlRj04LzG6s5kuVW444328ZUwHH7NjRYP1a1YI7U0GB932rBHKmhwfpSjU0Lzm+s5kiWW4073mwbUwHH7dvQYP1Y1YI5UkOD9X2rBXOkhgbrSzU2LTi/sZojWW417nizbUwFHLdvQ4P1Y1UL5kgNDdb3rRbMkRoarC/V2LTg/MZqjmS51bjjzbYxFXDcvg0N1o9VLZgjNTRY37daMEdqaLC+VGPTgvMbqzmS5VbjjjfbxlTAcfs2NFg/VrVgjtTQYH3fasEcqaHB+lKNTQvOb6zmSJZbjTvebBtTAcft29Bg/VjVgjlSQ4P1fasFc6SGButLNTYtOL+xmiNZbjXueLNtTAUct29Dg/VjVQvmSA0N1vetFsyRGhqsL9XYtOD8xmqOZLnVuOPNtjEVcNy+DQ3Wj1UtmCM1NFjft1owR2posL5UY9OC8xurOZLlVuOON9vGVMBx+zY0WD9WtWCO1NBgfd9qwRypocH6Uo1NC85vrOZInlttGIZhGIaRMdYAGoZhGIZhZIY1gIZhGIZhGJlhDaBhGIZhGEZmWANoGIZhGIaRGdYAGoZhGIZhZIY1gIZhGIZhGJlhDaBhGIZhGEZmWANoGIZhGIaRGdYAGoZhGIZhZIY1gIZhGIZhGJlhDaBhGIZhGEZmWANoGIZhGIaRGdYAGoZhGIZhZIY1gIZhGIZhGJlhDaBhGIZhGEZmWANoGIZhGIaRGdYAGoZhGIZhZIY1gIZhGIZhGJlhDaBhGIZhGEZmWANoGIZhGIaRGdYAGoZhGIZhZIY1gIZhGIZhGJlhDaBhGIZhGEZmWANoGIZhGIaRGdYAGoZhGIZhZIY1gIZhGIZhGJlhDaBhGIZhGEZmWANoGIZhGIaRGdYAGoZhGIZhZIY1gIZhGIZhGJlhDaBhGIZhGEZmWANoGIZhGIaRGdYAGoZhGIZhZIY1gIZhGIZhGJlhDaBhGIZhGEZmWANoGIZhGIaRGdYAGoZhGIZhZIY1gIZhGIZhGJlhDaBhGIZhGEZmWANoGIZhGIaRGdYAGoZhGIZhZIY1gIZhGIZhGJlhDaBhGIZhGEZmWANoGIZhGIaRGdYAGoZhGIZhZIY1gIZhGIZhGJlhDaBhGIZhGEZmWANoGIZhGIaRGdYAGoZhGIZhZIY1gIZhGIZhGJlhDaBhGIZhGEZmWANoGIZhGIaRGdYAGoZhGIZhZIY1gIZhGIZhGJlhDaBhGIZhGEZmWANoGIZhGIaRGdYAGoZhGIZhZIY1gIZhGIZhGJlhDaBhGIZhGEZmWANoGIZhGIaRGf8ftR7RSUaETKgAAAAASUVORK5CYII=;" vertex="1" parent="UxVwWkC277Bq-PU8NcVB-15">
          <mxGeometry x="197" y="66" width="270" height="270" as="geometry" />
        </mxCell>
        <mxCell id="UxVwWkC277Bq-PU8NcVB-8" value="" style="rounded=1;whiteSpace=wrap;html=1;fillColor=#bac8d3;strokeColor=none;" parent="UxVwWkC277Bq-PU8NcVB-15" vertex="1">
          <mxGeometry x="20.416666666666664" y="320" width="449.16666666666663" height="29.999999999999996" as="geometry" />
        </mxCell>
        <mxCell id="UxVwWkC277Bq-PU8NcVB-16" value="" style="sketch=0;pointerEvents=1;shadow=0;dashed=0;html=1;strokeColor=none;fillColor=#505050;labelPosition=center;verticalLabelPosition=bottom;verticalAlign=top;outlineConnect=0;align=center;shape=mxgraph.office.servers.web_server_blue;" parent="1" vertex="1">
          <mxGeometry x="1700" y="225" width="200" height="200" as="geometry" />
        </mxCell>
        <mxCell id="UxVwWkC277Bq-PU8NcVB-36" value="" style="shape=flexArrow;endArrow=classic;html=1;rounded=0;fillColor=#ffcd28;strokeColor=none;gradientColor=#ffa500;endWidth=36;endSize=18.33;width=48;" parent="1" edge="1">
          <mxGeometry width="50" height="50" relative="1" as="geometry">
            <mxPoint x="1330" y="315" as="sourcePoint" />
            <mxPoint x="1690" y="315" as="targetPoint" />
            <Array as="points">
              <mxPoint x="1680" y="315" />
            </Array>
          </mxGeometry>
        </mxCell>
        <mxCell id="UxVwWkC277Bq-PU8NcVB-37" value="&lt;font style=&quot;font-size: 15px;&quot;&gt;GET https://cdn.mon-application.com/image.png&lt;/font&gt;" style="edgeLabel;html=1;align=center;verticalAlign=middle;resizable=0;points=[];labelBackgroundColor=none;" parent="UxVwWkC277Bq-PU8NcVB-36" vertex="1" connectable="0">
          <mxGeometry x="-0.8" y="3" relative="1" as="geometry">
            <mxPoint x="143" y="3" as="offset" />
          </mxGeometry>
        </mxCell>
        <mxCell id="UxVwWkC277Bq-PU8NcVB-38" value="" style="sketch=0;pointerEvents=1;shadow=0;dashed=0;html=1;strokeColor=none;fillColor=#505050;labelPosition=center;verticalLabelPosition=bottom;verticalAlign=top;outlineConnect=0;align=center;shape=mxgraph.office.servers.web_server_blue;" parent="1" vertex="1">
          <mxGeometry x="1700" y="441" width="200" height="200" as="geometry" />
        </mxCell>
        <mxCell id="UxVwWkC277Bq-PU8NcVB-39" value="" style="shape=flexArrow;endArrow=classic;html=1;rounded=0;fillColor=#ffcd28;strokeColor=none;gradientColor=#ffa500;endWidth=36;endSize=18.33;width=48;" parent="1" edge="1">
          <mxGeometry width="50" height="50" relative="1" as="geometry">
            <mxPoint x="1330" y="585" as="sourcePoint" />
            <mxPoint x="1690" y="585" as="targetPoint" />
            <Array as="points">
              <mxPoint x="1680" y="585" />
            </Array>
          </mxGeometry>
        </mxCell>
        <mxCell id="UxVwWkC277Bq-PU8NcVB-40" value="&lt;font style=&quot;font-size: 15px;&quot;&gt;PUT https://api.my-app.com/orders&lt;/font&gt;" style="edgeLabel;html=1;align=center;verticalAlign=middle;resizable=0;points=[];labelBackgroundColor=none;" parent="UxVwWkC277Bq-PU8NcVB-39" vertex="1" connectable="0">
          <mxGeometry x="-0.8" y="3" relative="1" as="geometry">
            <mxPoint x="104" y="2" as="offset" />
          </mxGeometry>
        </mxCell>
        <mxCell id="UxVwWkC277Bq-PU8NcVB-41" value="" style="sketch=0;pointerEvents=1;shadow=0;dashed=0;html=1;strokeColor=none;fillColor=#505050;labelPosition=center;verticalLabelPosition=bottom;verticalAlign=top;outlineConnect=0;align=center;shape=mxgraph.office.servers.web_server_blue;" parent="1" vertex="1">
          <mxGeometry x="1700" y="661" width="200" height="200" as="geometry" />
        </mxCell>
        <mxCell id="UxVwWkC277Bq-PU8NcVB-42" value="" style="shape=flexArrow;endArrow=classic;html=1;rounded=0;fillColor=#ffcd28;strokeColor=none;gradientColor=#ffa500;endWidth=36;endSize=18.33;width=48;" parent="1" edge="1">
          <mxGeometry width="50" height="50" relative="1" as="geometry">
            <mxPoint x="1330" y="798" as="sourcePoint" />
            <mxPoint x="1690" y="798" as="targetPoint" />
            <Array as="points">
              <mxPoint x="1680" y="798" />
            </Array>
          </mxGeometry>
        </mxCell>
        <mxCell id="UxVwWkC277Bq-PU8NcVB-43" value="&lt;font style=&quot;font-size: 15px;&quot;&gt;POST https://auth.id-provider.com&lt;/font&gt;" style="edgeLabel;html=1;align=center;verticalAlign=middle;resizable=0;points=[];labelBackgroundColor=none;" parent="UxVwWkC277Bq-PU8NcVB-42" vertex="1" connectable="0">
          <mxGeometry x="-0.8" y="3" relative="1" as="geometry">
            <mxPoint x="94" y="3" as="offset" />
          </mxGeometry>
        </mxCell>
        <mxCell id="5SwmvgSCm_Z5sVcomVd8-1" value="" style="shape=flexArrow;endArrow=classic;html=1;rounded=0;fillColor=#ffcd28;strokeColor=none;gradientColor=#ffa500;endWidth=36;endSize=18.33;width=48;" edge="1" parent="1">
          <mxGeometry width="50" height="50" relative="1" as="geometry">
            <mxPoint x="1330" y="495" as="sourcePoint" />
            <mxPoint x="1690" y="495" as="targetPoint" />
            <Array as="points">
              <mxPoint x="1680" y="495" />
            </Array>
          </mxGeometry>
        </mxCell>
        <mxCell id="5SwmvgSCm_Z5sVcomVd8-2" value="&lt;font style=&quot;font-size: 15px;&quot;&gt;OPTIONS https://api.my-app.com/orders&lt;/font&gt;" style="edgeLabel;html=1;align=center;verticalAlign=middle;resizable=0;points=[];labelBackgroundColor=none;" vertex="1" connectable="0" parent="5SwmvgSCm_Z5sVcomVd8-1">
          <mxGeometry x="-0.8" y="3" relative="1" as="geometry">
            <mxPoint x="120" y="2" as="offset" />
          </mxGeometry>
        </mxCell>
        <mxCell id="5SwmvgSCm_Z5sVcomVd8-7" value="" style="shape=flexArrow;endArrow=classic;html=1;rounded=0;fillColor=#ffcd28;strokeColor=none;gradientColor=#ffa500;endWidth=36;endSize=18.33;width=48;" edge="1" parent="1">
          <mxGeometry width="50" height="50" relative="1" as="geometry">
            <mxPoint x="1331" y="705" as="sourcePoint" />
            <mxPoint x="1691" y="705" as="targetPoint" />
            <Array as="points">
              <mxPoint x="1681" y="705" />
            </Array>
          </mxGeometry>
        </mxCell>
        <mxCell id="5SwmvgSCm_Z5sVcomVd8-8" value="&lt;font style=&quot;font-size: 15px;&quot;&gt;OPTIONS https://auth.id-provider.com&lt;/font&gt;" style="edgeLabel;html=1;align=center;verticalAlign=middle;resizable=0;points=[];labelBackgroundColor=none;" vertex="1" connectable="0" parent="5SwmvgSCm_Z5sVcomVd8-7">
          <mxGeometry x="-0.8" y="3" relative="1" as="geometry">
            <mxPoint x="106" y="3" as="offset" />
          </mxGeometry>
        </mxCell>
      </root>
    </mxGraphModel>
  </diagram>
</mxfile>
